<svg width="117" height="71" viewBox="0 0 117 71" fill="none" xmlns="http://www.w3.org/2000/svg">
<path d="M16.29 64.57L15.2365 66.27L15.2504 66.2787L15.2645 66.2871L16.29 64.57ZM6.21 53.23L4.40831 54.0983L4.41463 54.1114L4.42115 54.1244L6.21 53.23ZM6.21 17.86L4.41682 16.9742L4.41246 16.9832L6.21 17.86ZM16.29 6.51999L17.3261 8.23073L17.3329 8.22656L16.29 6.51999ZM45.9 6.51999L44.8465 8.22002L44.8604 8.22866L44.8745 8.23708L45.9 6.51999ZM55.98 17.86L54.1783 18.7283L54.1846 18.7414L54.1912 18.7544L55.98 17.86ZM55.98 53.23L54.1868 52.3442L54.1825 52.3531L55.98 53.23ZM45.9 64.57L46.9361 66.2807L46.9429 66.2766L45.9 64.57ZM31.14 66.44C25.8807 66.44 21.2925 65.2281 17.3155 62.8529L15.2645 66.2871C19.9275 69.0719 25.2393 70.44 31.14 70.44V66.44ZM17.3435 62.87C13.4289 60.444 10.3098 56.9575 7.99886 52.3356L4.42115 54.1244C7.03016 59.3425 10.6311 63.416 15.2365 66.27L17.3435 62.87ZM8.01169 52.3617C5.76945 47.7091 4.61 42.1091 4.61 35.5H0.61C0.61 42.5709 1.85055 48.7909 4.40831 54.0983L8.01169 52.3617ZM4.61 35.5C4.61 28.8899 5.76978 23.3243 8.00754 18.7368L4.41246 16.9832C1.85022 22.2357 0.61 28.4301 0.61 35.5H4.61ZM8.00315 18.7458C10.3146 14.0666 13.4285 10.5912 17.3261 8.23071L15.2539 4.80928C10.6315 7.60881 7.02544 11.6934 4.41685 16.9742L8.00315 18.7458ZM17.3329 8.22656C21.3074 5.79773 25.8892 4.56 31.14 4.56V0.559998C25.2308 0.559998 19.9126 1.96227 15.2471 4.81343L17.3329 8.22656ZM31.14 4.56C36.3912 4.56 40.9379 5.79782 44.8465 8.22002L46.9535 4.81997C42.3421 1.96218 37.0488 0.559998 31.14 0.559998V4.56ZM44.8745 8.23708C48.8253 10.5966 51.9309 14.0649 54.1783 18.7283L57.7817 16.9917C55.2291 11.6951 51.6147 7.60341 46.9255 4.80291L44.8745 8.23708ZM54.1912 18.7544C56.4826 23.3374 57.67 28.8965 57.67 35.5H61.67C61.67 28.4235 60.3974 22.2226 57.7689 16.9656L54.1912 18.7544ZM57.67 35.5C57.67 42.1025 56.4829 47.696 54.1868 52.3442L57.7732 54.1158C60.3971 48.804 61.67 42.5775 61.67 35.5H57.67ZM54.1825 52.3531C51.9356 56.9593 48.8251 60.4386 44.8571 62.8634L46.9429 66.2766C51.6149 63.4214 55.2244 59.3407 57.7775 54.1068L54.1825 52.3531ZM44.8639 62.8593C40.9529 65.228 36.3998 66.44 31.14 66.44V70.44C37.0402 70.44 42.3271 69.072 46.9361 66.2807L44.8639 62.8593ZM31.14 53.43C32.7341 53.43 34.2075 52.9803 35.4771 52.044C36.7238 51.1245 37.663 49.8189 38.3625 48.2712C39.7397 45.2243 40.34 40.8982 40.34 35.5H36.34C36.34 40.7218 35.7403 44.3607 34.7175 46.6238C34.217 47.7311 33.6562 48.4167 33.1029 48.8248C32.5725 49.216 31.9459 49.43 31.14 49.43V53.43ZM40.34 35.5C40.34 30.1018 39.7397 25.7757 38.3625 22.7288C37.663 21.1811 36.7238 19.8754 35.4771 18.956C34.2075 18.0197 32.7341 17.57 31.14 17.57V21.57C31.9459 21.57 32.5725 21.784 33.1029 22.1752C33.6562 22.5833 34.217 23.2689 34.7175 24.3762C35.7403 26.6393 36.34 30.2782 36.34 35.5H40.34ZM31.14 17.57C29.5459 17.57 28.0725 18.0197 26.8029 18.956C25.5562 19.8754 24.617 21.1811 23.9175 22.7288C22.5403 25.7757 21.94 30.1018 21.94 35.5H25.94C25.94 30.2782 26.5397 26.6393 27.5625 24.3762C28.063 23.2689 28.6238 22.5833 29.1771 22.1752C29.7075 21.784 30.3341 21.57 31.14 21.57V17.57ZM21.94 35.5C21.94 40.8982 22.5403 45.2243 23.9175 48.2712C24.617 49.8189 25.5562 51.1245 26.8029 52.044C28.0725 52.9803 29.5459 53.43 31.14 53.43V49.43C30.3341 49.43 29.7075 49.216 29.1771 48.8248C28.6238 48.4167 28.063 47.7311 27.5625 46.6238C26.5397 44.3607 25.94 40.7218 25.94 35.5H21.94ZM114.446 50.53H116.446V48.53H114.446V50.53ZM114.446 67V69H116.446V67H114.446ZM63.9555 67H61.9555V69H63.9555V67ZM63.9555 53.95L62.5975 52.4817L61.9555 53.0755V53.95H63.9555ZM86.7255 32.89L88.0836 34.3583L88.0892 34.353L88.0949 34.3477L86.7255 32.89ZM90.6855 28.12L92.4744 29.0144L90.6855 28.12ZM90.0555 20.65L88.7323 22.1497L88.7788 22.1907L88.8277 22.2287L90.0555 20.65ZM80.1555 20.83L81.1935 22.5396L80.1555 20.83ZM76.2855 25.15L75.3911 26.9389L77.2034 27.845L78.0859 26.0211L76.2855 25.15ZM60.2655 17.14L58.5008 16.1988L57.5346 18.0106L59.3711 18.9289L60.2655 17.14ZM70.7955 6.51999L71.7707 8.26617L71.7793 8.26137L71.7878 8.25648L70.7955 6.51999ZM100.766 4.99L99.9881 6.83273H99.9882L100.766 4.99ZM109.766 11.92L108.142 13.0886L109.766 11.92ZM110.756 32.08L108.96 31.1997L108.956 31.2071L108.953 31.2145L110.756 32.08ZM102.206 42.34L100.866 40.8544L100.859 40.8608L102.206 42.34ZM93.2056 50.53L91.8595 49.0508L88.0362 52.53H93.2056V50.53ZM112.446 50.53V67H116.446V50.53H112.446ZM114.446 65H63.9555V69H114.446V65ZM65.9555 67V53.95H61.9555V67H65.9555ZM65.3136 55.4183L88.0836 34.3583L85.3675 31.4217L62.5975 52.4817L65.3136 55.4183ZM88.0949 34.3477C90.1274 32.4384 91.6545 30.6543 92.4744 29.0144L88.8967 27.2256C88.3966 28.2257 87.2837 29.6216 85.3562 31.4323L88.0949 34.3477ZM92.4744 29.0144C93.2495 27.4641 93.6756 25.8695 93.6756 24.25H89.6756C89.6756 25.1505 89.4416 26.1359 88.8967 27.2256L92.4744 29.0144ZM93.6756 24.25C93.6756 22.171 92.9232 20.3466 91.2834 19.0713L88.8277 22.2287C89.3479 22.6333 89.6756 23.209 89.6756 24.25H93.6756ZM91.3788 19.1503C89.8577 17.8081 87.8049 17.3 85.5555 17.3V21.3C87.2662 21.3 88.2134 21.6918 88.7323 22.1497L91.3788 19.1503ZM85.5555 17.3C83.2605 17.3 81.1027 17.9152 79.1176 19.1204L81.1935 22.5396C82.5684 21.7048 84.0106 21.3 85.5555 21.3V17.3ZM79.1176 19.1204C77.0906 20.3511 75.5441 22.0905 74.4852 24.2789L78.0859 26.0211C78.827 24.4895 79.8605 23.3489 81.1935 22.5396L79.1176 19.1204ZM77.18 23.3611L61.16 15.3511L59.3711 18.9289L75.3911 26.9389L77.18 23.3611ZM62.0303 18.0812C64.2427 13.9328 67.4724 10.6665 71.7707 8.26617L69.8204 4.77382C64.8787 7.53347 61.0884 11.3472 58.5008 16.1988L62.0303 18.0812ZM71.7878 8.25648C76.0436 5.82459 81.2645 4.56 87.5355 4.56V0.559998C80.7266 0.559998 74.7875 1.9354 69.8033 4.78351L71.7878 8.25648ZM87.5355 4.56C92.2995 4.56 96.4372 5.33467 99.9881 6.83273L101.543 3.14727C97.4139 1.40532 92.7316 0.559998 87.5355 0.559998V4.56ZM99.9882 6.83273C103.534 8.32859 106.224 10.4234 108.142 13.0886L111.389 10.7514C108.988 7.41661 105.677 4.8914 101.543 3.14727L99.9882 6.83273ZM108.142 13.0886C110.043 15.7289 111.006 18.7649 111.006 22.27H115.006C115.006 17.9751 113.808 14.1111 111.389 10.7514L108.142 13.0886ZM111.006 22.27C111.006 25.4515 110.322 28.4196 108.96 31.1997L112.551 32.9603C114.189 29.6204 115.006 26.0485 115.006 22.27H111.006ZM108.953 31.2145C107.679 33.8683 105.053 37.081 100.866 40.8545L103.545 43.8255C107.878 39.919 110.952 36.2917 112.559 32.9455L108.953 31.2145ZM100.859 40.8608L91.8595 49.0508L94.5516 52.0092L103.552 43.8192L100.859 40.8608ZM93.2056 52.53H114.446V48.53H93.2056V52.53Z" fill="white"/>
</svg>
