<svg width="117" height="71" viewBox="0 0 117 71" fill="none" xmlns="http://www.w3.org/2000/svg">
<path d="M16.29 64.57L15.2365 66.27L15.2504 66.2787L15.2645 66.2871L16.29 64.57ZM6.21 53.23L4.40831 54.0983L4.41463 54.1114L4.42115 54.1244L6.21 53.23ZM6.21 17.86L4.41682 16.9742L4.41246 16.9832L6.21 17.86ZM16.29 6.51999L17.3261 8.23073L17.3329 8.22656L16.29 6.51999ZM45.9 6.51999L44.8465 8.22002L44.8604 8.22866L44.8745 8.23708L45.9 6.51999ZM55.98 17.86L54.1783 18.7283L54.1846 18.7414L54.1912 18.7544L55.98 17.86ZM55.98 53.23L54.1868 52.3442L54.1825 52.3531L55.98 53.23ZM45.9 64.57L46.9361 66.2807L46.9429 66.2766L45.9 64.57ZM31.14 66.44C25.8807 66.44 21.2925 65.2281 17.3155 62.8529L15.2645 66.2871C19.9275 69.0719 25.2393 70.44 31.14 70.44V66.44ZM17.3435 62.87C13.4289 60.444 10.3098 56.9575 7.99886 52.3356L4.42115 54.1244C7.03016 59.3425 10.6311 63.416 15.2365 66.27L17.3435 62.87ZM8.01169 52.3617C5.76945 47.7091 4.61 42.1091 4.61 35.5H0.61C0.61 42.5709 1.85055 48.7909 4.40831 54.0983L8.01169 52.3617ZM4.61 35.5C4.61 28.8899 5.76978 23.3243 8.00754 18.7368L4.41246 16.9832C1.85022 22.2357 0.61 28.4301 0.61 35.5H4.61ZM8.00315 18.7458C10.3146 14.0666 13.4285 10.5912 17.3261 8.23071L15.2539 4.80928C10.6315 7.60881 7.02544 11.6934 4.41685 16.9742L8.00315 18.7458ZM17.3329 8.22656C21.3074 5.79773 25.8892 4.56 31.14 4.56V0.559998C25.2308 0.559998 19.9126 1.96227 15.2471 4.81343L17.3329 8.22656ZM31.14 4.56C36.3912 4.56 40.9379 5.79782 44.8465 8.22002L46.9535 4.81997C42.3421 1.96218 37.0488 0.559998 31.14 0.559998V4.56ZM44.8745 8.23708C48.8253 10.5966 51.9309 14.0649 54.1783 18.7283L57.7817 16.9917C55.2291 11.6951 51.6147 7.60341 46.9255 4.80291L44.8745 8.23708ZM54.1912 18.7544C56.4826 23.3374 57.67 28.8965 57.67 35.5H61.67C61.67 28.4235 60.3974 22.2226 57.7689 16.9656L54.1912 18.7544ZM57.67 35.5C57.67 42.1025 56.4829 47.696 54.1868 52.3442L57.7732 54.1158C60.3971 48.804 61.67 42.5775 61.67 35.5H57.67ZM54.1825 52.3531C51.9356 56.9593 48.8251 60.4386 44.8571 62.8634L46.9429 66.2766C51.6149 63.4214 55.2244 59.3407 57.7775 54.1068L54.1825 52.3531ZM44.8639 62.8593C40.9529 65.228 36.3998 66.44 31.14 66.44V70.44C37.0402 70.44 42.3271 69.072 46.9361 66.2807L44.8639 62.8593ZM31.14 53.43C32.7341 53.43 34.2075 52.9803 35.4771 52.044C36.7238 51.1245 37.663 49.8189 38.3625 48.2712C39.7397 45.2243 40.34 40.8982 40.34 35.5H36.34C36.34 40.7218 35.7403 44.3607 34.7175 46.6238C34.217 47.7311 33.6562 48.4167 33.1029 48.8248C32.5725 49.216 31.9459 49.43 31.14 49.43V53.43ZM40.34 35.5C40.34 30.1018 39.7397 25.7757 38.3625 22.7288C37.663 21.1811 36.7238 19.8754 35.4771 18.956C34.2075 18.0197 32.7341 17.57 31.14 17.57V21.57C31.9459 21.57 32.5725 21.784 33.1029 22.1752C33.6562 22.5833 34.217 23.2689 34.7175 24.3762C35.7403 26.6393 36.34 30.2782 36.34 35.5H40.34ZM31.14 17.57C29.5459 17.57 28.0725 18.0197 26.8029 18.956C25.5562 19.8754 24.617 21.1811 23.9175 22.7288C22.5403 25.7757 21.94 30.1018 21.94 35.5H25.94C25.94 30.2782 26.5397 26.6393 27.5625 24.3762C28.063 23.2689 28.6238 22.5833 29.1771 22.1752C29.7075 21.784 30.3341 21.57 31.14 21.57V17.57ZM21.94 35.5C21.94 40.8982 22.5403 45.2243 23.9175 48.2712C24.617 49.8189 25.5562 51.1245 26.8029 52.044C28.0725 52.9803 29.5459 53.43 31.14 53.43V49.43C30.3341 49.43 29.7075 49.216 29.1771 48.8248C28.6238 48.4167 28.063 47.7311 27.5625 46.6238C26.5397 44.3607 25.94 40.7218 25.94 35.5H21.94ZM99.4156 28.93L97.9906 27.5266L95.5256 30.0296L98.9361 30.8717L99.4156 28.93ZM110.576 35.5L109.022 36.7601L109.035 36.7761L109.049 36.7919L110.576 35.5ZM111.386 57.46L109.698 56.3862L109.693 56.3944L111.386 57.46ZM101.846 65.38L102.7 67.1885L101.846 65.38ZM72.4156 67L71.9874 68.9536L71.9929 68.9548L72.4156 67ZM60.8955 62.77L59.0784 61.9345L58.309 63.6079L59.9135 64.5123L60.8955 62.77ZM68.0956 47.11L69.1008 45.381L67.1979 44.2747L66.2784 46.2745L68.0956 47.11ZM76.3755 50.53L75.8627 52.4631L75.8723 52.4656L76.3755 50.53ZM90.9556 50.44L89.9783 48.695L90.9556 50.44ZM77.3655 42.52H75.3655V44.52H77.3655V42.52ZM77.3655 29.47L75.9378 28.0694L75.3655 28.6528V29.47H77.3655ZM86.6355 20.02L88.0633 21.4205L91.3991 18.02H86.6355V20.02ZM64.1355 20.02H62.1355V22.02H64.1355V20.02ZM64.1355 4V2H62.1355V4H64.1355ZM111.116 4H113.116V2H111.116V4ZM111.116 17.05L112.541 18.4534L113.116 17.8695V17.05H111.116ZM98.9361 30.8717C103.47 31.9911 106.773 33.9877 109.022 36.7601L112.129 34.2399C109.218 30.6523 105.081 28.2689 99.895 26.9883L98.9361 30.8717ZM109.049 36.7919C111.356 39.5186 112.536 42.8291 112.536 46.84H116.536C116.536 41.9709 115.075 37.7214 112.102 34.2081L109.049 36.7919ZM112.536 46.84C112.536 50.2259 111.602 53.3954 109.698 56.3862L113.073 58.5338C115.37 54.9246 116.536 51.0141 116.536 46.84H112.536ZM109.693 56.3944C107.901 59.2405 105.052 61.654 100.992 63.5715L102.7 67.1885C107.279 65.026 110.79 62.1595 113.078 58.5256L109.693 56.3944ZM100.992 63.5715C97.0139 65.4499 91.9567 66.44 85.7355 66.44V70.44C92.3544 70.44 98.0372 69.3902 102.7 67.1885L100.992 63.5715ZM85.7355 66.44C81.4409 66.44 77.1425 65.9758 72.8382 65.0452L71.9929 68.9548C76.5686 69.9442 81.1502 70.44 85.7355 70.44V66.44ZM72.8437 65.0464C68.6232 64.1213 64.9761 62.7741 61.8776 61.0277L59.9135 64.5123C63.415 66.4858 67.4479 67.9587 71.9874 68.9536L72.8437 65.0464ZM62.7127 63.6055L69.9127 47.9455L66.2784 46.2745L59.0784 61.9345L62.7127 63.6055ZM67.0903 48.839C69.8276 50.4304 72.7535 51.6382 75.8627 52.4631L76.8884 48.5969C74.1176 47.8618 71.5235 46.7896 69.1008 45.381L67.0903 48.839ZM75.8723 52.4656C79.0168 53.2832 82.0664 53.7 85.0155 53.7V49.7C82.4447 49.7 79.7343 49.3368 76.8788 48.5944L75.8723 52.4656ZM85.0155 53.7C87.6791 53.7 90.0329 53.2489 91.9328 52.185L89.9783 48.695C88.8782 49.3111 87.272 49.7 85.0155 49.7V53.7ZM91.9328 52.185C93.9858 51.0353 95.2056 49.2097 95.2056 46.84H91.2056C91.2056 47.5903 90.9253 48.1647 89.9783 48.695L91.9328 52.185ZM95.2056 46.84C95.2056 44.6871 94.2034 42.9467 92.3393 41.8687C90.6416 40.8869 88.3528 40.52 85.7355 40.52V44.52C88.0983 44.52 89.5445 44.8731 90.3368 45.3313C90.9627 45.6933 91.2056 46.1129 91.2056 46.84H95.2056ZM85.7355 40.52H77.3655V44.52H85.7355V40.52ZM79.3655 42.52V29.47H75.3655V42.52H79.3655ZM78.7933 30.8705L88.0633 21.4205L85.2078 18.6194L75.9378 28.0694L78.7933 30.8705ZM86.6355 18.02H64.1355V22.02H86.6355V18.02ZM66.1355 20.02V4H62.1355V20.02H66.1355ZM64.1355 6H111.116V2H64.1355V6ZM109.116 4V17.05H113.116V4H109.116ZM109.691 15.6466L97.9906 27.5266L100.841 30.3334L112.541 18.4534L109.691 15.6466Z" fill="white"/>
</svg>
