<svg width="60" height="60" viewBox="0 0 60 60" fill="none" xmlns="http://www.w3.org/2000/svg">
<rect x="58.5" y="58.5" width="57" height="57" rx="13.5" transform="rotate(180 58.5 58.5)" stroke="white" stroke-width="3"/>
<path d="M28.2727 46.394C28.8584 46.9798 29.8082 46.9798 30.394 46.394L39.9399 36.848C40.5257 36.2622 40.5257 35.3125 39.9399 34.7267C39.3541 34.1409 38.4044 34.1409 37.8186 34.7267L29.3333 43.212L20.848 34.7267C20.2622 34.1409 19.3125 34.1409 18.7267 34.7267C18.1409 35.3125 18.1409 36.2622 18.7267 36.848L28.2727 46.394ZM27.8333 13.3333L27.8333 45.3333L30.8333 45.3333L30.8333 13.3333L27.8333 13.3333Z" fill="white"/>
</svg>
