<svg width="100" height="100" viewBox="0 0 100 100" fill="none" xmlns="http://www.w3.org/2000/svg">
<g clip-path="url(#clip0)">
<path d="M91.6664 16.6664V23.1567L75.9705 37.426C74.3607 35.4149 72.5441 33.6205 70.5612 32.0618L78.7834 14.2464C79.0359 13.6986 79.1664 13.1035 79.1664 12.5V4.16641H70.8336V11.5852L63.3667 27.7634C60.4706 26.5022 57.3784 25.6523 54.1664 25.2571V0H45.8336V25.2571C42.6216 25.6523 39.5294 26.5015 36.6333 27.7626L29.1664 11.5852V4.16641H20.8336V12.5C20.8336 13.1035 20.9641 13.6986 21.2166 14.2464L29.4388 32.0618C27.4559 33.6205 25.6393 35.4149 24.0295 37.426L8.33359 23.1567V16.6664H0V25C0 26.1742 0.495148 27.2934 1.36414 28.083L45.8336 68.5097V100H54.1664V68.5097L98.6366 28.083C99.5049 27.2934 100 26.1742 100 25V16.6664H91.6664ZM69.7823 43.0519L62.384 49.7772L66.9296 39.9292C67.9565 40.8806 68.9125 41.9212 69.7823 43.0519ZM59.8663 35.3462L54.1664 47.6959V33.6876C56.1455 34.0157 58.0559 34.5726 59.8663 35.3462ZM45.8336 33.6876V47.6959L40.1337 35.3462C41.9441 34.5726 43.8545 34.0157 45.8336 33.6876ZM33.0711 39.93L37.616 49.7772L30.2177 43.0519C31.0875 41.9212 32.0435 40.8806 33.0711 39.93Z" fill="white"/>
</g>
<defs>
<clipPath id="clip0">
<rect width="100" height="100" fill="white"/>
</clipPath>
</defs>
</svg>
