<svg width="100" height="100" viewBox="0 0 100 100" fill="none" xmlns="http://www.w3.org/2000/svg">
<path d="M70.8336 54.1665C70.8336 65.6724 61.5059 83.3337 50 83.3337C38.4941 83.3337 29.1664 65.6724 29.1664 54.1665H0V100H100V54.1665H70.8336Z" fill="white"/>
<path d="M58.3336 66.6664C58.3336 68.9682 56.4682 70.8336 54.1664 70.8336C51.8654 70.8336 50 68.9682 50 66.6664C50 64.3654 51.8654 62.5 54.1664 62.5C56.4682 62.5 58.3336 64.3654 58.3336 66.6664Z" fill="white"/>
<path d="M58.3336 41.6664C58.3336 43.9682 56.4682 45.8336 54.1664 45.8336C51.8654 45.8336 50 43.9682 50 41.6664C50 39.3654 51.8654 37.5 54.1664 37.5C56.4682 37.5 58.3336 39.3654 58.3336 41.6664Z" fill="white"/>
<path d="M45.8336 54.1664C45.8336 56.4682 43.9682 58.3336 41.6664 58.3336C39.3654 58.3336 37.5 56.4682 37.5 54.1664C37.5 51.8654 39.3654 50 41.6664 50C43.9682 50 45.8336 51.8654 45.8336 54.1664Z" fill="white"/>
<path d="M36.6203 28.7262C37.1986 29.0161 37.8372 29.1664 38.4842 29.1664H64.3288C65.6487 29.1664 66.6321 27.9594 66.3712 26.6655C65.6357 23.0171 63.0768 16.6664 54.1664 16.6664H45.8336L50 12.5H62.5C62.5 12.5 83.3336 25 87.5 25C93.5776 25 95.2225 20.5681 95.668 18.1679C95.829 17.2997 95.417 16.4284 94.6503 15.9904L67.6277 0.549316C66.9983 0.189209 66.2857 0 65.5602 0H0V20.8336H20.8336L36.6203 28.7262Z" fill="white"/>
</svg>
