<svg width="103" height="103" viewBox="0 0 103 103" fill="none" xmlns="http://www.w3.org/2000/svg">
<g clip-path="url(#clip0)">
<path d="M102.964 54.4099C102.511 41.619 95.8176 30.3911 85.8321 23.6935V0H77.2493V19.3809C73.2188 17.9522 68.8881 17.1664 64.3743 17.1664C43.076 17.1664 25.7493 34.4939 25.7493 55.7914C25.7493 75.6383 40.7971 92.0298 60.0821 94.1728C58.6723 94.3292 57.2421 94.4164 55.7907 94.4164C34.4924 94.4164 17.1657 77.0897 17.1657 55.7914V42.9164H21.4571V34.3336C24.0676 34.3336 26.1202 31.9125 25.6904 29.3365L21.399 3.58652C21.0548 1.51665 19.2639 0 17.1665 0H8.5829C6.48474 0 4.69462 1.51665 4.34964 3.58652L0.058238 29.3365C-0.37161 31.9125 1.68097 34.3336 4.29149 34.3336V42.9164H8.5829V55.7914C8.5829 81.8219 29.7609 103 55.7915 103C81.822 103 102.999 81.8219 102.999 55.7914C102.999 55.3286 102.985 54.8681 102.964 54.4099ZM12.2181 8.5836H13.5305L16.3917 25.75H9.35772L12.2181 8.5836ZM77.2493 34.765V55.7914C77.2493 62.8914 71.4743 68.6664 64.3743 68.6664C57.2751 68.6664 51.4993 62.8914 51.4993 55.7914C51.4993 43.9592 61.1257 34.3336 72.9579 34.3336C74.4274 34.3336 75.8623 34.4813 77.2493 34.765ZM94.3772 57.3356C93.5709 73.1857 80.4217 85.8336 64.3743 85.8336C47.8098 85.8336 34.3329 72.3567 34.3329 55.7914C34.3329 39.2269 47.8098 25.75 64.3743 25.75C65.832 25.75 67.2638 25.86 68.6665 26.062C54.1279 28.1515 42.9165 40.6847 42.9165 55.7914C42.9165 67.6236 52.5421 77.25 64.3743 77.25C76.2065 77.25 85.8329 67.6236 85.8329 55.7914V38.6352C91.0421 42.5541 94.4165 48.7858 94.4165 55.7914C94.4165 56.3093 94.3976 56.8224 94.3772 57.3356Z" fill="white"/>
</g>
<defs>
<clipPath id="clip0">
<rect width="103" height="103" fill="white"/>
</clipPath>
</defs>
</svg>
