<svg width="101" height="101" viewBox="0 0 101 101" fill="none" xmlns="http://www.w3.org/2000/svg">
<path d="M12.8062 36.867C12.8135 43.4006 18.1079 48.6957 24.6422 48.703H75.3681C78.5522 48.7036 81.6012 47.4168 83.8221 45.1337V45.1098H83.8439C85.998 42.9068 87.2041 39.9478 87.2041 36.867V30.0938C87.1366 30.1818 87.0571 30.2626 86.9896 30.3486C86.7506 30.6518 86.5024 30.9437 86.2449 31.2297C86.0992 31.3985 85.9576 31.5547 85.8073 31.7116C85.5008 32.026 85.1798 32.3233 84.8501 32.6152C84.7323 32.7198 84.6217 32.833 84.4999 32.9343C84.0419 33.3175 83.5639 33.6763 83.0674 34.0093C82.9595 34.0821 82.8417 34.143 82.7298 34.2138C82.334 34.466 81.9335 34.7063 81.5171 34.9261C81.3298 35.0241 81.1352 35.1108 80.9445 35.2015C80.5877 35.371 80.2296 35.5398 79.8602 35.6801C79.6437 35.7648 79.426 35.8496 79.2062 35.9184C78.8388 36.0468 78.4687 36.16 78.0914 36.2567C77.869 36.3176 77.6466 36.3791 77.4156 36.4261C77.0045 36.5208 76.5868 36.5949 76.1671 36.6538C75.9685 36.683 75.7719 36.7214 75.57 36.7452C74.9418 36.8207 74.3096 36.861 73.6774 36.867H26.3329C25.7113 36.865 25.0903 36.8286 24.4727 36.7584C24.2311 36.732 23.9954 36.6843 23.7565 36.6486C23.4003 36.5936 23.0455 36.5393 22.698 36.4612C22.3849 36.3937 22.0804 36.3096 21.7739 36.2242C21.5237 36.1534 21.2754 36.0826 21.0285 36.0018C20.671 35.8827 20.3195 35.7529 19.9713 35.6126C19.8131 35.5484 19.6556 35.4789 19.4987 35.4094C19.0942 35.2306 18.6971 35.0446 18.3144 34.8348C18.2807 34.8176 18.2502 34.7977 18.2178 34.7792C16.4166 33.7922 14.8113 32.4821 13.4841 30.9133C13.3841 30.7954 13.2842 30.6803 13.1868 30.5598C13.0644 30.4095 12.9293 30.2725 12.8128 30.1156L12.8062 36.867Z" fill="#FFFAFA"/>
<path d="M58.245 58.8481C55.2423 58.9488 52.6646 61.0128 51.9106 63.9208C54.9127 63.8195 57.4904 61.7555 58.245 58.8481Z" fill="#FFFAFA"/>
<path d="M12.8062 19.9585C12.8069 20.447 12.8353 20.9355 12.889 21.4214C12.9108 21.626 12.9499 21.8232 12.9803 22.0251C13.0227 22.2972 13.0631 22.5673 13.1206 22.8367C13.1729 23.0717 13.2372 23.2994 13.3 23.5298C13.3616 23.7595 13.4278 23.9912 13.5046 24.2195C13.5807 24.4479 13.6727 24.6789 13.7561 24.9047C13.8389 25.1291 13.9388 25.3469 14.0388 25.566C14.1388 25.7838 14.2314 25.981 14.336 26.1843C14.5598 26.6172 14.8067 27.0382 15.0748 27.444C15.2171 27.6571 15.3746 27.8584 15.5282 28.0623C15.6977 28.2946 15.8784 28.521 16.0638 28.7395C16.2498 28.9572 16.4596 29.1903 16.6708 29.4061C16.8065 29.5444 16.9501 29.6742 17.0905 29.8079L17.2513 29.9535L38.1688 6.43115H26.3329C18.8652 6.44042 12.8142 12.4915 12.8062 19.9585V19.9585Z" fill="#FFFAFA"/>
<path d="M20.2713 32.0345C20.5268 32.163 20.7783 32.2934 21.0445 32.4066C21.4853 32.5952 21.9368 32.7594 22.3969 32.8991C22.5855 32.956 22.7801 32.999 22.9714 33.0474C23.3435 33.1427 23.7181 33.2168 24.1008 33.2863C24.2782 33.3168 24.4542 33.3446 24.633 33.3671C25.197 33.4412 25.7643 33.4809 26.3329 33.4849H73.6775C75.8739 33.4869 78.0379 32.9481 79.9794 31.918L57.1846 6.27408C55.3615 4.2233 52.7487 3.05029 50.0049 3.05029C47.261 3.05029 44.6482 4.2233 42.8258 6.27408L20.0376 31.9114L20.2713 32.0345ZM65.2228 26.7216H68.6048V30.1036H65.2228V26.7216ZM60.1502 18.2669H63.5322V21.6489H60.1502V18.2669ZM46.6235 21.6489H50.0049V25.0309H46.6235V21.6489ZM41.5509 13.1949H44.9329V16.5763H41.5509V13.1949ZM33.0962 26.7216H36.4782V30.1036H33.0962V26.7216Z" fill="#FFFAFA"/>
<path d="M41.7653 58.8481C42.5193 61.7555 45.097 63.8208 48.0997 63.9208C47.345 61.0134 44.7673 58.9494 41.7653 58.8481Z" fill="#FFFAFA"/>
<path d="M73.6775 6.43068H61.8415L82.759 29.9544C86.9042 26.2043 88.3116 20.2883 86.2985 15.0733C84.2848 9.85835 79.2665 6.42273 73.6775 6.43068Z" fill="#FFFAFA"/>
<path d="M39.8602 70.6841H38.3384C39.1466 74.6182 42.6067 77.4434 46.6236 77.4474H48.1448C47.3365 73.5133 43.8757 70.6887 39.8602 70.6841V70.6841Z" fill="#FFFAFA"/>
<path d="M84.921 89.6218C84.2094 88.6699 83.8241 87.5134 83.8222 86.3246V49.5112C81.3232 51.1913 78.3795 52.0876 75.3682 52.0843H24.6422C21.6303 52.0876 18.6872 51.1913 16.1876 49.5112V87.5929C16.1876 87.959 16.0691 88.3151 15.8493 88.6077L11.5379 94.3562C11.0573 94.997 10.9799 95.8536 11.338 96.5698C11.6968 97.2861 12.4283 97.7375 13.2286 97.7375H86.7811C87.5815 97.7375 88.3136 97.2861 88.6711 96.5698C89.0299 95.8536 88.9517 94.997 88.4725 94.3562L84.921 89.6218ZM53.3869 80.8289H51.6962V83.5119L59.655 91.47C60.1383 91.9533 60.2826 92.6808 60.0204 93.3123C59.759 93.9445 59.1433 94.3562 58.4595 94.3562H41.5509C40.8671 94.3562 40.2508 93.9445 39.9886 93.3123C39.7272 92.6808 39.8715 91.9533 40.3554 91.47L48.3142 83.5119V80.8289H46.6235C40.0893 80.8216 34.7948 75.5272 34.7876 68.9929C34.7876 68.0596 35.5442 67.3023 36.4782 67.3023H39.8602C43.0443 67.3023 46.0933 68.5898 48.3142 70.8723V67.3023C42.7133 67.2976 38.1742 62.7579 38.1689 57.157C38.1689 56.2236 38.9262 55.4663 39.8602 55.4663H41.5509C44.9534 55.4689 48.1275 57.1768 50.0049 60.0153C51.8815 57.1768 55.057 55.4689 58.4595 55.4663H60.1502C61.0842 55.4663 61.8415 56.2236 61.8415 57.157C61.8356 62.7579 57.2964 67.2976 51.6962 67.3023V70.8723C53.9158 68.5898 56.9661 67.3023 60.1502 67.3023H63.5322C64.4656 67.3023 65.2228 68.0596 65.2228 68.9929C65.2156 75.5272 59.9205 80.8216 53.3869 80.8289V80.8289Z" fill="#FFFAFA"/>
<path d="M51.8649 77.4474H53.3868C57.4023 77.4434 60.8637 74.6182 61.672 70.6841H60.1501C56.134 70.6887 52.6732 73.5133 51.8649 77.4474V77.4474Z" fill="#FFFAFA"/>
<path d="M45.6326 90.9744H54.3778L50.0049 86.6021L45.6326 90.9744Z" fill="#FFFAFA"/>
</svg>
