<svg width="19" height="19" viewBox="0 0 19 19" fill="none" xmlns="http://www.w3.org/2000/svg">
<path d="M9.5 0C4.25359 0 0 4.25323 0 9.5C0 14.7468 4.25359 19 9.5 19C14.7464 19 19 14.7468 19 9.5C19 4.25323 14.7464 0 9.5 0ZM15.3206 15.0462C15.3206 15.1839 15.2089 15.2953 15.0712 15.2953H3.92919C3.79144 15.2953 3.67973 15.1836 3.67973 15.0462V8.00006C3.67973 7.92832 3.71078 7.85945 3.76467 7.8127L9.33548 2.92816C9.4297 2.84607 9.5703 2.84607 9.66452 2.92816L15.2353 7.8127C15.2889 7.8598 15.3196 7.92832 15.3196 8.00006V15.0462H15.3206ZM16.8812 8.04502C16.7942 8.04502 16.7064 8.01469 16.6353 7.95224L9.5 1.69801L2.36536 7.95259C2.20977 8.08928 1.97387 8.07322 1.83755 7.91798C1.70158 7.76238 1.71692 7.52577 1.87216 7.39016L9.25376 0.919309C9.39508 0.795473 9.60599 0.795473 9.74696 0.919309L17.1289 7.39016C17.2841 7.52613 17.2995 7.76273 17.1635 7.91798C17.0889 8.0022 16.9851 8.04502 16.8812 8.04502Z" fill="#141414"/>
<path d="M9.83516 10.6616C10.2566 10.5174 10.5393 10.1245 10.5393 9.6845C10.5393 9.11207 10.0728 8.646 9.50041 8.646C8.92763 8.646 8.46155 9.11172 8.46155 9.6845C8.46155 10.1245 8.74419 10.5174 9.1653 10.6616C9.22811 10.6834 9.27951 10.7287 9.30841 10.788C9.33732 10.8479 9.34196 10.9157 9.32055 10.9789L8.56147 13.1919H10.4393L9.68028 10.9789C9.65886 10.9157 9.66315 10.8479 9.69241 10.788C9.72096 10.7284 9.77306 10.6834 9.83516 10.6616Z" fill="#141414"/>
</svg>
