<svg width="19" height="19" viewBox="0 0 19 19" fill="none" xmlns="http://www.w3.org/2000/svg">
<path d="M15.7967 3.19647C14.1145 1.51435 11.8778 0.587891 9.49901 0.587891C7.12005 0.587891 4.88347 1.51435 3.20125 3.19647C1.51902 4.8787 0.592773 7.11517 0.592773 9.49412C0.592773 11.8731 1.51913 14.1097 3.20125 15.7919C4.88347 17.474 7.12005 18.4005 9.49901 18.4005C11.8778 18.4005 14.1145 17.474 15.7967 15.7919C17.4787 14.1097 18.4051 11.8731 18.4051 9.49412C18.4051 7.11528 17.4788 4.8787 15.7967 3.19647ZM9.49901 16.1213C5.84479 16.1213 2.87184 13.1483 2.87184 9.49412C2.87184 5.84002 5.84479 2.86706 9.49901 2.86706C13.1531 2.86706 16.1261 5.84002 16.1261 9.49412C16.1261 13.1483 13.1531 16.1213 9.49901 16.1213Z" fill="#141414"/>
<path d="M9.49894 3.91943C6.42478 3.91943 3.92383 6.42028 3.92383 9.49443C3.92383 12.5687 6.42478 15.0695 9.49894 15.0695C12.5731 15.0695 15.074 12.5687 15.074 9.49443C15.074 6.42028 12.5731 3.91943 9.49894 3.91943ZM13.2856 10.0205H9.49894C9.20853 10.0205 8.97302 9.78485 8.97302 9.49443V5.70776C8.97302 5.41735 9.20853 5.18184 9.49894 5.18184C9.78935 5.18184 10.0249 5.41735 10.0249 5.70776V8.96851H13.2856C13.576 8.96851 13.8115 9.20402 13.8115 9.49443C13.8115 9.78485 13.576 10.0205 13.2856 10.0205Z" fill="#141414"/>
</svg>
