<svg width="100" height="100" viewBox="0 0 100 100" fill="none" xmlns="http://www.w3.org/2000/svg">
<g clip-path="url(#clip0)">
<path d="M91.0831 53.5658C83.5137 51.6737 78.1482 54.6178 76.4706 54.9911V57.9335L81.4257 65.366L88.2353 68.7705V76.4707H82.3529V72.4062L77.3976 69.9285L73.5294 64.1258L69.661 69.9285L64.7059 72.4062V76.4707H58.8235V68.7705L65.6329 65.3658L70.5882 57.9333V56.8254C68.039 57.3301 65.3663 57.1721 62.8955 56.3482L56.2031 54.1174C52.189 52.7791 47.9163 52.6864 43.8475 53.8489L35.3235 56.2844C33.3822 56.8391 31.3753 56.9901 29.4118 56.7548V57.9333L34.3669 65.3658L41.1765 68.7705V76.4707H35.2941V72.4062L30.3388 69.9285L26.4706 64.126L22.6022 69.9285L17.6471 72.4062V76.4707H11.7647V68.7705L18.5741 65.3658L23.5294 57.9333V54.8356C19.6192 53.1227 15.2198 52.6356 11.0253 53.4748L0 55.6801V88.2354H100V55.7948L91.0831 53.5658Z" fill="white"/>
<path d="M29.4117 56.7548V44.1177H34.4484C41.4017 44.1177 47.0588 37.6524 47.0588 29.7059V20.5883H39.0808C32.1276 20.5883 26.4706 27.0536 26.4706 35.0001V26.1765C26.4706 18.2301 20.8135 11.7648 13.8602 11.7648H5.88232V20.8824C5.88232 28.8289 11.5394 35.2942 18.4925 35.2942H23.5294V54.8356C24.7606 55.375 26.4568 56.4012 29.4117 56.7548Z" fill="white"/>
<path d="M76.4706 54.9909V44.1177H81.5073C88.4606 44.1177 94.1176 37.6524 94.1176 29.706V20.5883H86.1396C79.1865 20.5883 73.5294 27.0536 73.5294 35.0001V26.1765C73.5294 18.2301 67.8723 11.7648 60.919 11.7648H52.9412V20.8824C52.9412 28.8289 58.5982 35.2942 65.5514 35.2942H70.5882V56.8254C72.0963 56.5269 72.7014 56.2162 76.4706 54.9909Z" fill="white"/>
</g>
<defs>
<clipPath id="clip0">
<rect width="100" height="100" fill="white"/>
</clipPath>
</defs>
</svg>
