<svg width="100" height="100" viewBox="0 0 100 100" fill="none" xmlns="http://www.w3.org/2000/svg">
<g clip-path="url(#clip0)">
<path d="M21.7727 52.8496H28.6933C22.0456 44.2398 22.0462 30.4819 28.6935 21.8727H22.5563C34.3267 0.449305 65.7274 0.463969 77.4917 21.8727H71.3537C78.0016 30.4825 78.001 44.2404 71.3537 52.8496H78.2741C83.353 52.8496 87.4847 48.7177 87.4847 43.6392V31.0833C87.4847 28.955 86.7572 26.9946 85.5404 25.4331C73.7947 -8.44846 26.2952 -8.50711 14.5061 25.4337C13.2896 26.995 12.5621 28.9552 12.5621 31.0831V43.639C12.5621 48.7177 16.694 52.8496 21.7727 52.8496Z" fill="white"/>
<path d="M91.3267 91.1275C87.759 74.7281 72.7798 57.87 50.0225 57.8677C28.1909 57.8677 12.5086 73.7586 8.6825 91.0794C7.70457 95.6768 11.2182 100.002 15.9059 100C30.6627 100 69.8624 100 84.1392 99.9545C88.7917 99.9545 92.2686 95.6838 91.3267 91.1275Z" fill="white"/>
<path d="M56.3014 43.8455H69.4786C74.0189 30.9445 63.76 16.6054 50.0232 16.855C38.716 16.8548 29.517 26.0539 29.517 37.3611C29.5594 57.0247 54.7365 65.2294 66.3831 49.7107H56.3014C52.416 49.5672 52.4162 43.9888 56.3014 43.8455Z" fill="white"/>
</g>
<defs>
<clipPath id="clip0">
<rect width="100" height="100" fill="white"/>
</clipPath>
</defs>
</svg>
