<svg width="100" height="100" viewBox="0 0 100 100" fill="none" xmlns="http://www.w3.org/2000/svg">
<path d="M34.3117 46.6521C44.5784 46.6521 52.9311 38.2994 52.9311 28.0329C51.9948 3.36588 16.6249 3.37252 15.6925 28.0331C15.6925 38.2994 24.045 46.6521 34.3117 46.6521Z" fill="white"/>
<path d="M44.3505 81.3778V65.688C44.3505 59.9214 46.6717 54.6033 50.4956 50.7165C28.2707 38.3671 -0.345276 55.4035 0.00315129 80.9614C0.00276068 80.961 0.00276068 90.7915 0.00276068 90.7915C0.00276068 95.8018 4.05498 99.9971 9.20815 99.9971H52.9569C47.6939 95.5037 44.3505 88.8242 44.3505 81.3778Z" fill="white"/>
<path d="M87.4482 50.4849V12.3434C87.4482 11.5663 87.1394 10.8212 86.59 10.272L77.1762 0.858178C76.6268 0.30878 75.8817 0 75.1048 0C74.3277 0 73.5828 0.308585 73.0332 0.858178L63.6194 10.272C62.4755 11.4159 62.4755 13.2709 63.6194 14.415L66.2547 17.0503L63.6192 19.6858C62.4753 20.8299 62.4753 22.6847 63.6192 23.8288L66.2545 26.4641L63.6196 29.0991C62.4755 30.2431 62.4755 32.0979 63.6196 33.2422L66.2551 35.8777L63.6198 38.5129C63.0704 39.0621 62.7616 39.8074 62.7616 40.5844V50.4845C55.6212 51.8577 50.2098 58.1528 50.2098 65.6877V81.3775C50.2098 91.644 58.5623 99.9967 68.829 99.9967H81.3808C91.6475 99.9967 100 91.644 100 81.3775V65.6879C100 58.153 94.5886 51.8581 87.4482 50.4849ZM75.1048 84.7241C71.5293 84.7241 68.6206 81.8152 68.6206 78.2397C68.9466 69.6493 81.2644 69.6517 81.589 78.2397C81.589 81.8152 78.6801 84.7241 75.1048 84.7241Z" fill="white"/>
</svg>
