<svg width="24" height="24" viewBox="0 0 24 24" fill="none" xmlns="http://www.w3.org/2000/svg">
<g clip-path="url(#clip0)">
<path d="M9.89177 20.5452C9.98996 20.5452 10.0696 20.4665 10.0719 20.3684C10.1602 16.6011 11.0656 13.2677 11.5774 10.7402C12.0431 8.44083 12.2454 5.95669 13.108 3.80015C13.152 3.68992 13.1121 3.56248 13.013 3.49702C12.9711 3.46931 12.9229 3.45581 12.875 3.45581C12.8099 3.45581 12.7451 3.48086 12.6967 3.52927C12.6252 3.60071 10.9245 5.3173 9.36965 8.2544C7.93338 10.9673 6.37331 15.2645 7.09682 20.3295C7.11444 20.4526 7.22135 20.5454 7.34556 20.5454H9.89177V20.5452Z" fill="#141414"/>
<path d="M0.251537 11.7488C0.206121 11.7488 0.160301 11.7611 0.119329 11.7865C0.0196884 11.848 -0.0240307 11.9687 0.012981 12.0798C1.34742 16.0831 0.0269615 20.1721 0.0134659 20.2129C-0.0124746 20.2907 0.000455243 20.3753 0.0474876 20.4406C0.0946816 20.5062 0.170887 20.5451 0.251456 20.5451H3.01594C3.15453 20.5451 3.26727 20.4324 3.26727 20.2938C3.26727 14.7273 0.547631 11.941 0.429323 11.8227C0.380593 11.774 0.316429 11.7488 0.251537 11.7488Z" fill="#141414"/>
<path d="M4.57252 20.5451H5.76554C5.86066 20.5451 5.93323 20.4611 5.92062 20.3668C5.54226 17.5313 5.82349 14.8862 6.40428 12.6474C6.41131 12.6202 6.4109 12.5916 6.40315 12.5646C5.19202 8.34564 3.31 6.40979 3.19372 6.29351C3.14515 6.24486 3.08131 6.21948 3.0165 6.21948C2.97609 6.21948 2.93536 6.22942 2.89762 6.24954C2.79903 6.30231 2.74764 6.41109 2.76962 6.52051C3.32293 9.28693 3.42621 12.0715 3.35413 14.403C3.35348 14.4241 3.35712 14.4446 3.36496 14.4642C3.94268 15.9119 4.3966 18.0411 4.41599 20.389C4.41664 20.4752 4.48614 20.5451 4.57252 20.5451Z" fill="#141414"/>
<path d="M17.9095 10.3018C16.6879 8.38487 15.6399 7.67365 15.5958 7.6444C15.5535 7.61611 15.5048 7.60205 15.4564 7.60205C15.4024 7.60205 15.3486 7.61943 15.3036 7.65377C15.2185 7.71882 15.1839 7.83107 15.2179 7.93289C16.5658 11.9764 15.2221 20.1704 15.2084 20.2527C15.1963 20.3254 15.2167 20.3997 15.2646 20.4561C15.3125 20.5128 15.3824 20.5451 15.4563 20.5451H20.9854C21.0583 20.5451 21.1275 20.5135 21.1753 20.4585C21.2231 20.4033 21.2446 20.3304 21.2342 20.2583C20.5129 15.2092 19.0281 12.057 17.9095 10.3018Z" fill="#141414"/>
<path d="M16.0972 6.58281C16.2801 5.49266 16.5824 4.54401 17.0477 3.84612C17.1198 3.73808 17.0963 3.59019 16.9945 3.50962C16.948 3.47277 16.8931 3.45483 16.8383 3.45483C16.7712 3.45483 16.7046 3.48199 16.6549 3.53516C16.6074 3.58607 15.6037 4.67396 14.4643 6.833C14.5045 6.79397 14.5463 6.75631 14.5917 6.72172C15.0295 6.38765 15.615 6.3394 16.0972 6.58281Z" fill="#141414"/>
<path d="M22.3627 20.3767C22.3768 20.4733 22.4594 20.5451 22.5571 20.5451H23.7499C23.8454 20.5451 23.9317 20.4923 23.9752 20.4053C24.012 20.3317 24.006 20.2441 23.9693 20.1704C21.2809 14.7788 22.6019 6.59458 22.6156 6.51247C22.632 6.41348 22.5883 6.31448 22.5042 6.2601C22.4198 6.20555 22.3116 6.20636 22.2282 6.26204C22.1102 6.34059 20.1937 7.64214 18.9724 9.79181C20.6264 12.4345 21.762 16.2813 22.3627 20.3767Z" fill="#141414"/>
<path d="M13.8872 20.5452C13.9819 20.5452 14.0622 20.4763 14.0759 20.3826C14.2502 19.1906 15.2623 11.7748 14.1052 8.30391C14.1045 8.30181 14.1039 8.29971 14.1031 8.2976C14.0479 8.13032 13.8178 8.11545 13.7467 8.27659C12.5999 10.8756 11.3289 14.9694 11.2409 20.2898C11.2399 20.3567 11.2661 20.4224 11.3131 20.4701C11.3601 20.5179 11.4253 20.5452 11.4923 20.5452H13.8872Z" fill="#141414"/>
</g>
<defs>
<clipPath id="clip0">
<rect width="24" height="24" fill="white"/>
</clipPath>
</defs>
</svg>
