<svg width="206" height="41" viewBox="0 0 206 41" fill="none" xmlns="http://www.w3.org/2000/svg">
<path d="M58.98 6.5V17H56.04V8.855H52.05V17H49.125V6.5H58.98ZM66.0246 6.5C66.9746 6.5 67.7996 6.66 68.4996 6.98C69.1996 7.29 69.7396 7.74 70.1196 8.33C70.4996 8.91 70.6896 9.595 70.6896 10.385C70.6896 11.175 70.4996 11.86 70.1196 12.44C69.7396 13.02 69.1996 13.47 68.4996 13.79C67.7996 14.1 66.9746 14.255 66.0246 14.255H64.1946V17H61.2246V6.5H66.0246ZM65.8446 11.915C66.4546 11.915 66.9146 11.785 67.2246 11.525C67.5346 11.255 67.6896 10.875 67.6896 10.385C67.6896 9.895 67.5346 9.515 67.2246 9.245C66.9146 8.975 66.4546 8.84 65.8446 8.84H64.1946V11.915H65.8446ZM72.0352 6.5H74.9602V12.665L79.2952 6.5H82.0852V17H79.1602V10.85L74.8402 17H72.0352V6.5ZM94.3148 6.5L89.9648 14.615C89.5048 15.485 88.9398 16.145 88.2698 16.595C87.6098 17.045 86.8848 17.27 86.0948 17.27C85.5148 17.27 84.8948 17.14 84.2348 16.88L84.9398 14.69C85.3498 14.81 85.6998 14.87 85.9898 14.87C86.2798 14.87 86.5348 14.805 86.7548 14.675C86.9848 14.545 87.1948 14.34 87.3848 14.06L83.3048 6.5H86.4398L88.8848 11.57L91.4198 6.5H94.3148ZM100.236 17.21C99.1361 17.21 98.1461 16.98 97.2661 16.52C96.3961 16.05 95.7111 15.4 95.2111 14.57C94.7111 13.74 94.4611 12.8 94.4611 11.75C94.4611 10.7 94.7111 9.76 95.2111 8.93C95.7111 8.1 96.3961 7.455 97.2661 6.995C98.1461 6.525 99.1361 6.29 100.236 6.29C101.196 6.29 102.061 6.46 102.831 6.8C103.601 7.14 104.241 7.63 104.751 8.27L102.861 9.98C102.181 9.16 101.356 8.75 100.386 8.75C99.8161 8.75 99.3061 8.875 98.8561 9.125C98.4161 9.375 98.0711 9.73 97.8211 10.19C97.5811 10.64 97.4611 11.16 97.4611 11.75C97.4611 12.34 97.5811 12.865 97.8211 13.325C98.0711 13.775 98.4161 14.125 98.8561 14.375C99.3061 14.625 99.8161 14.75 100.386 14.75C101.356 14.75 102.181 14.34 102.861 13.52L104.751 15.23C104.241 15.87 103.601 16.36 102.831 16.7C102.061 17.04 101.196 17.21 100.236 17.21ZM113.162 14.96H108.722L107.897 17H104.867L109.502 6.5H112.427L117.077 17H113.987L113.162 14.96ZM112.292 12.77L110.942 9.41L109.592 12.77H112.292ZM129.677 14.645V19.115H126.962V17H120.242V19.115H117.512V14.645H117.887C118.507 14.635 118.942 14.21 119.192 13.37C119.452 12.53 119.612 11.32 119.672 9.74L119.792 6.5H128.252V14.645H129.677ZM122.267 9.995C122.227 11.115 122.137 12.065 121.997 12.845C121.857 13.625 121.642 14.225 121.352 14.645H125.327V8.855H122.312L122.267 9.995ZM139.528 14.705V17H131.098V6.5H139.333V8.795H134.038V10.565H138.703V12.785H134.038V14.705H139.528ZM151.21 6.5V17H148.24V12.905H144.19V17H141.22V6.5H144.19V10.445H148.24V6.5H151.21ZM153.466 6.5H162.241V8.795H156.391V10.49H159.106C160.376 10.49 161.351 10.76 162.031 11.3C162.711 11.84 163.051 12.615 163.051 13.625C163.051 14.685 162.671 15.515 161.911 16.115C161.151 16.705 160.086 17 158.716 17H153.466V6.5ZM158.521 14.87C159.021 14.87 159.401 14.77 159.661 14.57C159.921 14.37 160.051 14.085 160.051 13.715C160.051 12.975 159.541 12.605 158.521 12.605H156.391V14.87H158.521ZM174.574 6.5V17H171.604V12.905H167.554V17H164.584V6.5H167.554V10.445H171.604V6.5H174.574ZM182.185 9.845C183.475 9.845 184.47 10.135 185.17 10.715C185.87 11.285 186.22 12.135 186.22 13.265C186.22 14.475 185.83 15.4 185.05 16.04C184.27 16.68 183.185 17 181.795 17H176.83V6.5H179.755V9.845H182.185ZM181.6 14.87C182.1 14.87 182.495 14.735 182.785 14.465C183.085 14.195 183.235 13.815 183.235 13.325C183.235 12.415 182.69 11.96 181.6 11.96H179.755V14.87H181.6ZM187.375 6.5H190.3V17H187.375V6.5ZM200.993 14.705V17H192.563V6.5H200.798V8.795H195.503V10.565H200.168V12.785H195.503V14.705H200.993ZM57.585 26.855H54.375V35H51.45V26.855H48.225V24.5H57.585V26.855ZM67.3841 32.705V35H58.9541V24.5H67.1891V26.795H61.8941V28.565H66.5591V30.785H61.8941V32.705H67.3841ZM71.5983 24.485L73.4733 27.335L75.3333 24.485H78.7833L75.3333 29.51L79.0833 35H75.5883L73.4733 31.895L71.3733 35H67.9533L71.6883 29.645L68.1933 24.485H71.5983ZM89.9793 24.5V35H87.0093V30.905H82.9593V35H79.9893V24.5H82.9593V28.445H87.0093V24.5H89.9793ZM97.3954 35.21C96.2854 35.21 95.2854 34.975 94.3954 34.505C93.5154 34.035 92.8204 33.385 92.3104 32.555C91.8104 31.725 91.5604 30.79 91.5604 29.75C91.5604 28.71 91.8104 27.775 92.3104 26.945C92.8204 26.115 93.5154 25.465 94.3954 24.995C95.2854 24.525 96.2854 24.29 97.3954 24.29C98.5054 24.29 99.5004 24.525 100.38 24.995C101.27 25.465 101.965 26.115 102.465 26.945C102.975 27.775 103.23 28.71 103.23 29.75C103.23 30.79 102.975 31.725 102.465 32.555C101.965 33.385 101.27 34.035 100.38 34.505C99.5004 34.975 98.5054 35.21 97.3954 35.21ZM97.3954 32.75C97.9254 32.75 98.4054 32.625 98.8354 32.375C99.2654 32.125 99.6054 31.775 99.8554 31.325C100.105 30.865 100.23 30.34 100.23 29.75C100.23 29.16 100.105 28.64 99.8554 28.19C99.6054 27.73 99.2654 27.375 98.8354 27.125C98.4054 26.875 97.9254 26.75 97.3954 26.75C96.8654 26.75 96.3854 26.875 95.9554 27.125C95.5254 27.375 95.1854 27.73 94.9354 28.19C94.6854 28.64 94.5604 29.16 94.5604 29.75C94.5604 30.34 94.6854 30.865 94.9354 31.325C95.1854 31.775 95.5254 32.125 95.9554 32.375C96.3854 32.625 96.8654 32.75 97.3954 32.75ZM114.32 24.5V35H111.395V26.855H108.38L108.32 28.565C108.27 30.065 108.145 31.285 107.945 32.225C107.755 33.165 107.425 33.895 106.955 34.415C106.485 34.925 105.82 35.18 104.96 35.18C104.56 35.18 104.11 35.12 103.61 35L103.775 32.57C103.905 32.6 104.04 32.615 104.18 32.615C104.57 32.615 104.87 32.46 105.08 32.15C105.29 31.84 105.44 31.41 105.53 30.86C105.62 30.3 105.68 29.575 105.71 28.685L105.86 24.5H114.32ZM121.726 35.21C120.616 35.21 119.616 34.975 118.726 34.505C117.846 34.035 117.151 33.385 116.641 32.555C116.141 31.725 115.891 30.79 115.891 29.75C115.891 28.71 116.141 27.775 116.641 26.945C117.151 26.115 117.846 25.465 118.726 24.995C119.616 24.525 120.616 24.29 121.726 24.29C122.836 24.29 123.831 24.525 124.711 24.995C125.601 25.465 126.296 26.115 126.796 26.945C127.306 27.775 127.561 28.71 127.561 29.75C127.561 30.79 127.306 31.725 126.796 32.555C126.296 33.385 125.601 34.035 124.711 34.505C123.831 34.975 122.836 35.21 121.726 35.21ZM121.726 32.75C122.256 32.75 122.736 32.625 123.166 32.375C123.596 32.125 123.936 31.775 124.186 31.325C124.436 30.865 124.561 30.34 124.561 29.75C124.561 29.16 124.436 28.64 124.186 28.19C123.936 27.73 123.596 27.375 123.166 27.125C122.736 26.875 122.256 26.75 121.726 26.75C121.196 26.75 120.716 26.875 120.286 27.125C119.856 27.375 119.516 27.73 119.266 28.19C119.016 28.64 118.891 29.16 118.891 29.75C118.891 30.34 119.016 30.865 119.266 31.325C119.516 31.775 119.856 32.125 120.286 32.375C120.716 32.625 121.196 32.75 121.726 32.75ZM136.829 26.855H132.074V35H129.149V24.5H136.844L136.829 26.855ZM138.173 24.5H141.098V30.665L145.433 24.5H148.223V35H145.298V28.85L140.978 35H138.173V24.5ZM150.478 24.5H153.403V30.665L157.738 24.5H160.528V35H157.603V28.85L153.283 35H150.478V24.5Z" fill="white"/>
<g clip-path="url(#clip0)">
<path d="M16.8986 35.0981C17.0663 35.0981 17.2023 34.9636 17.2063 34.796C17.3572 28.3603 18.9038 22.6657 19.7782 18.3478C20.5737 14.4198 20.9194 10.1761 22.3929 6.49197C22.4682 6.30366 22.4 6.08595 22.2307 5.97413C22.1591 5.92678 22.0767 5.90372 21.9949 5.90372C21.8837 5.90372 21.7731 5.94652 21.6902 6.02921C21.5682 6.15125 18.6627 9.08378 16.0066 14.1013C13.553 18.7359 10.8879 26.0769 12.1238 34.7296C12.1539 34.9399 12.3366 35.0984 12.5488 35.0984H16.8986V35.0981Z" fill="white"/>
<path d="M0.429798 20.0709C0.352212 20.0709 0.273936 20.092 0.203943 20.1353C0.0337234 20.2404 -0.0409634 20.4467 0.022265 20.6363C2.30194 27.4754 0.0461482 34.4607 0.0230933 34.5304C-0.0212218 34.6634 0.000866717 34.8079 0.0812137 34.9195C0.161837 35.0314 0.292021 35.098 0.42966 35.098H5.15232C5.38908 35.098 5.58167 34.9054 5.58167 34.6686C5.58167 25.1592 0.935625 20.3993 0.733515 20.1972C0.650269 20.1139 0.540655 20.0709 0.429798 20.0709Z" fill="white"/>
<path d="M7.81144 35.098H9.84952C10.012 35.098 10.136 34.9544 10.1144 34.7933C9.46808 29.9493 9.9485 25.4306 10.9407 21.606C10.9527 21.5596 10.952 21.5106 10.9388 21.4645C8.86976 14.2572 5.65464 10.9501 5.45598 10.7514C5.37301 10.6683 5.26395 10.625 5.15323 10.625C5.0842 10.625 5.01463 10.642 4.95015 10.6763C4.78173 10.7665 4.69393 10.9523 4.73148 11.1392C5.67673 15.8652 5.85316 20.6223 5.73002 24.6051C5.72891 24.6413 5.73512 24.6762 5.74852 24.7097C6.73546 27.1828 7.5109 30.8202 7.54403 34.8312C7.54514 34.9785 7.66386 35.098 7.81144 35.098Z" fill="white"/>
<path d="M30.5956 17.5992C28.5086 14.3244 26.7182 13.1094 26.643 13.0594C26.5706 13.0111 26.4875 12.9871 26.4048 12.9871C26.3126 12.9871 26.2207 13.0168 26.1438 13.0754C25.9984 13.1866 25.9393 13.3783 25.9973 13.5523C28.3 20.4599 26.0046 34.458 25.9811 34.5986C25.9604 34.7229 25.9954 34.8497 26.0771 34.9461C26.159 35.0429 26.2784 35.0981 26.4047 35.0981H35.8501C35.9747 35.0981 36.0928 35.0441 36.1746 34.9501C36.2561 34.856 36.2929 34.7314 36.2752 34.6082C35.0429 25.9826 32.5065 20.5977 30.5956 17.5992Z" fill="white"/>
<path d="M27.4994 11.2457C27.812 9.38334 28.3284 7.76273 29.1232 6.57051C29.2463 6.38593 29.2063 6.13329 29.0324 5.99565C28.953 5.9327 28.8591 5.90205 28.7655 5.90205C28.6509 5.90205 28.537 5.94844 28.4521 6.03928C28.3711 6.12625 26.6565 7.98472 24.7099 11.6731C24.7785 11.6064 24.85 11.5421 24.9275 11.483C25.6754 10.9123 26.6756 10.8299 27.4994 11.2457Z" fill="white"/>
<path d="M38.2031 34.8103C38.2272 34.9754 38.3683 35.098 38.5352 35.098H40.5729C40.7359 35.098 40.8835 35.0078 40.9578 34.8591C41.0206 34.7335 41.0104 34.5837 40.9477 34.4579C36.355 25.2472 38.6117 11.2658 38.6351 11.1256C38.6632 10.9565 38.5885 10.7873 38.4448 10.6944C38.3006 10.6012 38.1158 10.6026 37.9732 10.6977C37.7718 10.8319 34.4977 13.0554 32.4113 16.7278C35.2369 21.2424 37.1769 27.814 38.2031 34.8103Z" fill="white"/>
<path d="M23.7241 35.0979C23.8859 35.0979 24.023 34.9803 24.0464 34.8202C24.3442 32.7839 26.0732 20.1152 24.0966 14.1858C24.0953 14.1822 24.0942 14.1786 24.093 14.175C23.9987 13.8892 23.6055 13.8638 23.484 14.1391C21.525 18.5791 19.3537 25.5727 19.2034 34.6617C19.2016 34.7759 19.2465 34.8882 19.3267 34.9697C19.4069 35.0513 19.5184 35.0979 19.6327 35.0979H23.7241Z" fill="white"/>
</g>
<defs>
<clipPath id="clip0">
<rect width="41" height="41" fill="white"/>
</clipPath>
</defs>
</svg>
