<svg width="100" height="100" viewBox="0 0 100 100" fill="none" xmlns="http://www.w3.org/2000/svg">
<g clip-path="url(#clip0)">
<path d="M88.9451 91.4591C88.3796 89.6983 87.0452 88.2642 85.7271 86.9462C85.0209 86.24 83.9178 85.5478 82.6529 84.9366C83.9653 77.2673 86.2459 61.864 86.2459 47.4424C86.2459 33.2411 83.8683 20.8406 82.564 15.1062C83.8665 14.4843 85.0042 13.7763 85.7271 13.0535C87.6871 11.0935 91.7654 7.01472 86.9363 2.18562C85.4859 0.735459 83.9915 0 82.4946 0C80.0689 0 78.2547 1.82435 76.6539 3.43367L76.381 3.70752C75.4777 4.61079 74.7307 6.08661 74.1689 7.48269C68.5088 5.49788 59.3674 2.92778 49.9769 2.92778C40.635 2.92778 31.5002 5.48988 25.8273 7.47305C25.2661 6.07991 24.5203 4.6085 23.6193 3.70752L23.3464 3.43367C21.7458 1.82435 19.9312 0 17.5059 0C16.009 0 14.5146 0.735459 13.0639 2.18595C8.23481 7.01521 12.3133 11.0936 14.2731 13.0538C14.9907 13.7714 16.118 14.4747 17.4087 15.0932C16.1097 20.8892 13.7077 33.4922 13.7077 47.4424C13.7077 63.0628 15.9237 77.6655 17.2456 84.9857C16.0231 85.5848 14.9602 86.2591 14.2727 86.9462C12.9548 88.2642 11.6206 89.6983 11.0548 91.4591C10.3534 93.642 11.0294 95.7799 13.0633 97.814C14.5136 99.2644 16.0082 100 17.5053 100C19.9306 100 21.7451 98.1756 23.346 96.5663L23.6188 96.2923C24.3085 95.6026 24.9064 94.5781 25.4015 93.5109C30.4494 94.8176 38.9166 96.4292 49.9766 96.4292C61.5163 96.4292 69.7583 94.8766 74.6304 93.5804C75.1189 94.6225 75.7057 95.6178 76.3804 96.2925L76.6532 96.5665C78.2542 98.1758 80.0684 100 82.4939 100C83.9908 100 85.4853 99.2647 86.9359 97.8142C88.9706 95.7799 89.6464 93.642 88.9451 91.4591ZM35.047 70.4396C34.7775 70.4396 34.5058 70.4526 34.2162 70.4792L34.1912 70.4816C34.1189 70.4885 34.037 70.4957 33.9538 70.4957C33.5059 70.4957 33.2456 70.2985 33.1063 70.1333C32.8726 69.8561 32.7994 69.479 32.8829 68.981L33.4339 64.8878C33.528 64.189 34.1541 63.6418 34.8592 63.6418H39.0811C39.8211 63.6418 40.4228 64.2398 40.4228 64.9746C40.4228 65.7094 39.821 66.3074 39.0811 66.3074H35.9862C35.9497 66.3074 35.8849 66.3633 35.8793 66.3993L35.6574 67.8816H35.8159C36.8934 67.8816 37.8788 68.1311 38.6658 68.6037C39.9249 69.3192 40.6551 70.621 40.6551 72.1664C40.6551 74.8132 38.5055 76.8091 35.655 76.8091C34.7515 76.8091 33.8372 76.6405 33.0798 76.3346C32.8303 76.2344 32.1229 75.95 32.1929 75.0508L32.1991 74.97L32.3035 74.6521C32.4762 74.1256 32.9587 73.7718 33.5041 73.7718C33.6873 73.7718 33.8666 73.8107 34.037 73.8875C34.0419 73.8898 34.7499 74.1975 35.6368 74.1975C36.6406 74.1975 37.721 73.6181 37.721 72.3459C37.7064 71.0834 36.8066 70.4396 35.047 70.4396ZM30.2984 24.984C33.044 25.0922 40.7757 27.7211 44.4499 32.7208C47.431 36.7782 46.8831 40.7734 46.3996 44.2984C46.3037 44.9986 46.2096 45.686 46.1465 46.3555C46.1234 46.2682 46.1009 46.1814 46.0767 46.0929C46.0589 46.0272 46.0409 45.961 46.0231 45.894L45.9945 45.7943L45.9873 45.7695L45.9855 45.7633C45.9882 45.768 45.9576 45.7022 45.9694 45.7267L45.9643 45.7128L45.9439 45.6571C45.8898 45.5086 45.8318 45.3587 45.7721 45.2069C45.644 44.9107 45.5038 44.6082 45.3388 44.3182C45.0141 43.7332 44.621 43.1697 44.1834 42.6496C43.7462 42.1285 43.2689 41.6461 42.7798 41.2032C41.7973 40.3187 40.7775 39.5801 39.8667 38.9224C39.4112 38.5922 38.9798 38.2842 38.5921 37.9803C38.2007 37.6791 37.8559 37.3844 37.555 37.0922C37.2559 36.8009 36.9893 36.5138 36.7867 36.2288C36.6713 36.0904 36.5988 35.9456 36.5017 35.8151C36.4226 35.6757 36.3499 35.5479 36.284 35.4321C36.2241 35.3103 36.1707 35.2017 36.1241 35.1071C36.0772 35.0074 36.0466 34.9131 36.0154 34.8414C35.9535 34.6958 35.9202 34.6182 35.9202 34.6182C35.9202 34.6182 35.8904 34.6973 35.8345 34.8453C35.8099 34.9205 35.7715 35.0084 35.7455 35.1203C35.7187 35.2337 35.6916 35.3674 35.6649 35.5231C35.6442 35.6752 35.6339 35.8429 35.6226 36.0314C35.6264 36.2154 35.6246 36.4239 35.6553 36.6393C35.6983 37.079 35.8326 37.562 36.0334 38.0651C36.2383 38.5656 36.5211 39.0788 36.8626 39.5675C37.205 40.0568 37.596 40.5342 38.0166 40.9881C38.8571 41.8988 39.8011 42.7233 40.6778 43.5223C41.5607 44.3179 42.3677 45.0924 43.0321 45.8708C43.2014 46.0644 43.3514 46.2628 43.506 46.4561C43.5765 46.5555 43.6475 46.654 43.7207 46.7506L43.748 46.787L43.7548 46.796C43.7684 46.8244 43.7401 46.7625 43.744 46.7711L43.7476 46.7765L43.7615 46.7986L43.8163 46.8865C43.8537 46.9447 43.8908 47.0024 43.9277 47.0594C44.2215 47.518 44.5127 47.9457 44.7917 48.3355C45.0971 48.7535 45.3772 49.1285 45.6308 49.455C42.3761 49.1509 35.4126 46.5043 32.0187 41.8854C29.1599 37.995 29.7283 34.0218 30.23 30.5161C30.529 28.4196 30.7942 26.5672 30.2984 24.984ZM52.8635 55.5601L52.9156 55.5319C53.0552 55.4574 53.1954 55.379 53.3372 55.2988C53.6127 55.1301 53.8923 54.9491 54.1561 54.7447C54.6896 54.3408 55.1923 53.8726 55.6457 53.3658C56.1001 52.8597 56.5107 52.319 56.8803 51.7726C57.6176 50.6756 58.2055 49.5618 58.7289 48.5674C58.9916 48.0698 59.2362 47.5996 59.4825 47.1729C59.7256 46.7432 59.9689 46.36 60.2155 46.0213C60.4622 45.6844 60.7088 45.38 60.9624 45.1391C61.0833 45.0055 61.2161 44.9133 61.3318 44.7989C61.4586 44.701 61.5753 44.6109 61.6805 44.5296C61.7926 44.4532 61.8928 44.3852 61.9798 44.3257C62.072 44.2651 62.1611 44.222 62.2274 44.1808C62.3627 44.0989 62.4351 44.0551 62.4351 44.0551C62.4351 44.0551 62.3526 44.0365 62.198 44.0024C62.1199 43.9883 62.0279 43.9625 61.913 43.9527C61.797 43.9419 61.6607 43.9344 61.5029 43.9296C61.3498 43.9305 61.1821 43.9437 60.9937 43.9592C60.8119 43.989 60.6055 44.0164 60.3967 44.077C59.9676 44.1814 59.5083 44.3821 59.0382 44.652C58.5715 44.9252 58.103 45.2775 57.6671 45.6842C57.231 46.0919 56.8133 46.546 56.4231 47.0264C55.6398 47.9867 54.9561 49.0372 54.2885 50.0177C53.6253 51.0037 52.9718 51.9118 52.2945 52.6787C52.1266 52.8736 51.9516 53.0501 51.7818 53.2303C51.6934 53.3141 51.6058 53.3983 51.5204 53.4844L51.4882 53.5166L51.4802 53.5246C51.4542 53.5421 51.5112 53.5051 51.5034 53.5105L51.4985 53.5148L51.4785 53.5316L51.3991 53.5983L51.2437 53.7329C50.8311 54.0885 50.4485 54.4367 50.1017 54.7681C49.7105 55.1491 49.3627 55.4953 49.0648 55.8045C48.9707 54.6917 49.0114 52.8932 49.4633 50.6027C49.907 48.3546 51.0661 44.13 53.8442 41.094C57.1037 37.5322 61.1119 37.3159 64.648 37.1254C66.7712 37.0107 68.6464 36.9095 70.1049 36.1068C70.5024 38.6154 69.4795 46.886 65.2553 51.5027C61.8562 55.2171 57.8305 55.4579 54.2787 55.6703C53.5998 55.7109 52.9331 55.7512 52.2875 55.8154C52.3602 55.7847 52.4297 55.7573 52.5034 55.7256C52.5659 55.6985 52.6293 55.6715 52.6926 55.6442L52.7873 55.6022L52.811 55.5914L52.8169 55.5885C52.8128 55.5919 52.8735 55.5525 52.8509 55.5674L52.8635 55.5601ZM45.6641 64.5539C45.6641 63.8138 46.2659 63.2122 47.0058 63.2122H47.2205C47.9605 63.2122 48.5622 63.814 48.5622 64.5539V67.7534L51.6347 63.9795C51.9968 63.5349 52.6757 63.212 53.2493 63.212H53.8396C54.4769 63.212 54.7199 63.5895 54.7947 63.7519C54.8694 63.9143 54.9991 64.3439 54.5854 64.8287L51.0911 68.9243C51.0475 68.9754 51.0395 69.1227 51.0771 69.1784L55.0293 75.0088C55.2718 75.3666 55.3107 75.7612 55.1356 76.0918C54.9604 76.422 54.612 76.6115 54.1795 76.6115H53.6785C53.0823 76.6115 52.4088 76.2524 52.0767 75.7573L48.9684 71.1225L48.8373 71.2743C48.7009 71.432 48.562 71.8052 48.562 72.0138V75.2701C48.562 76.0101 47.9602 76.6117 47.2203 76.6117H47.0056C46.2656 76.6117 45.664 76.0099 45.664 75.2701V64.5539H45.6641ZM63.7774 63.0867C65.0808 63.0867 66.041 63.3341 66.497 63.4816C67.0351 63.6556 67.4898 64.2659 67.3096 64.8967L67.2406 65.1292C67.075 65.6893 66.5738 66.0655 65.9939 66.0658C65.8428 66.0658 65.6934 66.0396 65.5493 65.9882C65.5442 65.9862 64.8117 65.7346 63.7413 65.7346C61.1256 65.7346 59.5638 67.2962 59.5638 69.9119C59.5638 72.5387 61.0517 74.1073 63.5442 74.1073C64.1627 74.1073 64.6315 74.0509 64.9486 73.9779V71.5312H63.8395C63.0995 71.5312 62.4978 70.9493 62.4978 70.2341C62.4978 69.5189 63.0996 68.937 63.8395 68.937H66.4692C67.2093 68.937 67.8109 69.5388 67.8109 70.2787V74.9207C67.8109 75.5843 67.5027 76.0127 66.8949 76.1937L66.8692 76.2014C66.0794 76.4459 64.8429 76.737 63.4367 76.737C61.3447 76.737 59.7186 76.1553 58.4655 74.9593C57.2637 73.7991 56.5761 71.9867 56.5761 69.9838C56.5972 65.857 59.491 63.0867 63.7774 63.0867Z" fill="white"/>
</g>
<defs>
<clipPath id="clip0">
<rect width="100" height="100" fill="white"/>
</clipPath>
</defs>
</svg>
