<svg width="101" height="101" viewBox="0 0 101 101" fill="none" xmlns="http://www.w3.org/2000/svg">
<path d="M2.95898 14.9922H12.7614L23.8691 53.8766V63.4263C30.7426 65.8775 35.7051 72.3849 35.7051 80.0898C35.7051 82.175 35.2782 84.1477 34.6147 86.0078H72.5013C71.8378 84.1477 71.4101 82.175 71.4101 80.0898C71.4101 72.4658 76.2655 66.0054 83.0265 63.4949C82.4794 59.521 79.4387 56.3055 75.3485 55.8516L29.1283 50.7366L17.8387 11.221C17.4742 9.94958 16.3129 9.07422 14.9922 9.07422H2.95898C1.32384 9.07422 0 10.3981 0 12.0332C0 13.6684 1.32384 14.9922 2.95898 14.9922ZM44.582 68.2539H62.5332C64.1683 68.2539 65.4922 69.5777 65.4922 71.2129C65.4922 72.848 64.1683 74.1719 62.5332 74.1719H44.582C42.9469 74.1719 41.623 72.848 41.623 71.2129C41.623 69.5777 42.9469 68.2539 44.582 68.2539Z" fill="white"/>
<path d="M17.9512 68.2539C11.4144 68.2539 6.11523 73.5531 6.11523 80.0898C6.11523 86.6266 11.4144 91.9258 17.9512 91.9258C24.4879 91.9258 29.7871 86.6266 29.7871 80.0898C29.7871 73.5531 24.4879 68.2539 17.9512 68.2539ZM17.9512 83.0488C16.3168 83.0488 14.9922 81.7242 14.9922 80.0898C14.9922 78.4555 16.3168 77.1309 17.9512 77.1309C19.5855 77.1309 20.9102 78.4555 20.9102 80.0898C20.9102 81.7242 19.5855 83.0488 17.9512 83.0488Z" fill="white"/>
<path d="M45.5583 35.3929C43.0625 35.124 40.5365 35.9246 38.6587 37.6067C36.7831 39.285 35.7051 41.6985 35.7051 44.2174V45.5128L71.4102 49.4604V45.532C71.4102 41.0042 68.015 37.213 63.4063 36.699L45.5583 35.3929Z" fill="white"/>
<path d="M89.1641 68.2539C82.6273 68.2539 77.3281 73.5531 77.3281 80.0898C77.3281 86.6266 82.6273 91.9258 89.1641 91.9258C95.7008 91.9258 101 86.6266 101 80.0898C101 73.5531 95.7008 68.2539 89.1641 68.2539ZM89.1641 83.0488C87.5297 83.0488 86.2051 81.7242 86.2051 80.0898C86.2051 78.4555 87.5297 77.1309 89.1641 77.1309C90.7984 77.1309 92.123 78.4555 92.123 80.0898C92.123 81.7242 90.7984 83.0488 89.1641 83.0488Z" fill="white"/>
</svg>
