<svg width="23" height="23" viewBox="0 0 23 23" fill="none" xmlns="http://www.w3.org/2000/svg">
<g clip-path="url(#clip0)">
<path d="M19.6301 3.36667C15.1385 -1.12367 7.85702 -1.12259 3.36668 3.36914C-1.12367 7.86088 -1.12259 15.1423 3.36915 19.6326C7.86089 24.123 15.1423 24.1219 19.6326 19.6301C21.7891 17.4729 23.0003 14.5474 22.9996 11.4972C22.999 8.44743 21.787 5.52283 19.6301 3.36667ZM17.416 16.019C17.4155 16.0195 17.415 16.02 17.4145 16.0205V16.0167L16.8318 16.5955C16.0782 17.3586 14.9807 17.6726 13.9376 17.4235C12.8867 17.1422 11.8876 16.6945 10.9783 16.0972C10.1335 15.5573 9.35059 14.9261 8.64379 14.215C7.99345 13.5695 7.4092 12.8606 6.8996 12.099C6.34221 11.2796 5.90104 10.3869 5.5886 9.44635C5.23044 8.34146 5.52724 7.12906 6.35529 6.31454L7.03761 5.63222C7.22731 5.44166 7.53556 5.44098 7.72608 5.63069C7.72657 5.63118 7.72711 5.63168 7.7276 5.63222L9.88192 7.78654C10.0725 7.97624 10.0732 8.28449 9.88345 8.47501C9.88296 8.4755 9.88246 8.476 9.88192 8.47653L8.61692 9.74154C8.25395 10.1006 8.20831 10.6711 8.5096 11.0832C8.96713 11.7111 9.47345 12.302 10.0238 12.8504C10.6374 13.4666 11.3044 14.0272 12.0171 14.5256C12.4289 14.8128 12.9872 14.7644 13.3434 14.4106L14.5662 13.1686C14.7559 12.978 15.0642 12.9773 15.2547 13.1671C15.2552 13.1675 15.2557 13.168 15.2562 13.1686L17.4144 15.3306C17.605 15.5202 17.6057 15.8284 17.416 16.019Z" fill="white"/>
</g>
<defs>
<clipPath id="clip0">
<rect width="23" height="23" fill="white"/>
</clipPath>
</defs>
</svg>
