<svg width="22" height="22" viewBox="0 0 22 22" fill="none" xmlns="http://www.w3.org/2000/svg">
<path d="M17.4883 12.9766C15.0004 12.9766 12.9766 15.0004 12.9766 17.4883C12.9766 19.9762 15.0004 22 17.4883 22C19.9762 22 22 19.9762 22 17.4883C22 15.0004 19.9762 12.9766 17.4883 12.9766ZM17.4883 19.4219C16.4222 19.4219 15.5547 18.5543 15.5547 17.4883C15.5547 16.4222 16.4222 15.5547 17.4883 15.5547C18.5543 15.5547 19.4219 16.4222 19.4219 17.4883C19.4219 18.5543 18.5543 19.4219 17.4883 19.4219ZM17.4883 16.8438C17.1329 16.8438 16.8438 17.1329 16.8438 17.4883C16.8438 17.8436 17.1329 18.1328 17.4883 18.1328C17.8436 18.1328 18.1328 17.8436 18.1328 17.4883C18.1328 17.1329 17.8436 16.8438 17.4883 16.8438Z" fill="#141414"/>
<path d="M17.4883 0C15.0004 0 12.9766 2.02383 12.9766 4.51172V13.8458C14.0409 12.5301 15.6681 11.6875 17.4883 11.6875C19.3084 11.6875 20.9357 12.5301 22 13.8458V4.51172C22 2.02383 19.9762 0 17.4883 0V0Z" fill="#141414"/>
<path d="M0.377695 10.3984H5.15625V5.61988L0.377695 10.3984ZM11.8319 18.7773L11.6875 5.24219H6.44531V11.6875H0V22H13.8458C12.8502 21.1948 12.1258 20.0668 11.8319 18.7773Z" fill="#141414"/>
</svg>
