<svg width="100" height="100" viewBox="0 0 100 100" fill="none" xmlns="http://www.w3.org/2000/svg">
<g clip-path="url(#clip0)">
<path d="M31.8177 57.8079L38.234 72.1915L44.6549 57.7969C40.4751 59.1721 35.9427 59.1557 31.8177 57.8079Z" fill="white"/>
<path d="M38.2339 52.9411C46.3552 52.9411 52.9393 46.357 52.9393 38.2357V32.3379C52.4119 32.3642 23.9656 32.3595 23.5286 32.3379V38.2357C23.5286 46.3541 30.1124 52.9411 38.2339 52.9411Z" fill="white"/>
<path d="M41.175 99.9984H58.8215V85.293H41.175V99.9984Z" fill="white"/>
<path d="M68.1131 65.1166L64.7036 64.2284V99.9985H76.4679V76.376C76.4679 71.1921 73.0745 66.6191 68.1131 65.1166Z" fill="white"/>
<path d="M20.5875 99.9984H35.2929V85.293H20.5875V99.9984Z" fill="white"/>
<path d="M0 76.376V99.9983H14.7054V63.4622L8.3548 65.1166C3.39341 66.6191 0 71.1921 0 76.376Z" fill="white"/>
<path d="M49.9423 60.3826C40.2342 81.4526 41.2497 79.2486 41.175 79.4107H58.8214V62.6958C54.4837 61.5657 57.5415 62.3625 49.9423 60.3826Z" fill="white"/>
<path d="M26.5256 60.3826L20.5875 61.9298V79.4107H35.2929C35.1145 79.0233 36.7403 82.5522 26.5256 60.3826Z" fill="white"/>
<path d="M17.6465 20.5892H58.8215V26.4714H17.6465V20.5892Z" fill="white"/>
<path d="M52.9393 7.30549C52.9393 3.27191 49.6692 0.00183105 45.6356 0.00183105H30.8322C26.7986 0.00183105 23.5286 3.27191 23.5286 7.30549V14.7072H52.9393V7.30549Z" fill="white"/>
<path d="M99.9965 35.2947C99.8612 33.5136 100.744 26.5131 97.0701 17.6422C93.2106 8.32411 87.3442 4.06818 85.2911 1.72473C83.2433 4.0623 77.3792 8.30587 73.5121 17.6422C69.8518 26.479 70.7214 33.5103 70.5857 35.2947H82.35V41.1769H76.4679V55.8822C76.4679 60.7474 80.4258 64.7055 85.2911 64.7055C90.1564 64.7055 94.1143 60.7474 94.1143 55.8822V41.1769H88.2322V35.2947H99.9965Z" fill="white"/>
</g>
<defs>
<clipPath id="clip0">
<rect width="100" height="100" fill="white"/>
</clipPath>
</defs>
</svg>
