<svg width="11" height="11" viewBox="0 0 11 11" fill="none" xmlns="http://www.w3.org/2000/svg">
<path d="M5.5 2.68408C3.94739 2.68408 2.6842 3.94725 2.6842 5.49988C2.6842 7.0525 3.94737 8.31566 5.5 8.31566C7.05263 8.31566 8.31578 7.0525 8.31578 5.49988C8.31578 3.94723 7.05262 2.68408 5.5 2.68408Z" fill="#141414"/>
<path d="M4.9283 2.10792H6.07165C6.16209 2.10792 6.23981 2.07015 6.28487 2.00433C6.32995 1.93851 6.337 1.8524 6.30427 1.76805L5.6752 0.148392C5.62507 0.0192679 5.5439 0 5.49998 0C5.45605 0 5.37488 0.0192859 5.32475 0.148374L4.69567 1.76807C4.66294 1.8524 4.67002 1.9385 4.71506 2.00433C4.76012 2.07017 4.83786 2.10792 4.9283 2.10792Z" fill="#141414"/>
<path d="M6.07167 8.89209H4.92831C4.83787 8.89209 4.76013 8.92987 4.71509 8.99569C4.67005 9.06153 4.66297 9.14762 4.6957 9.23196L5.32476 10.8516C5.37489 10.9807 5.45606 11 5.49999 11C5.54392 11 5.62509 10.9807 5.67522 10.8516L6.30428 9.23194C6.33701 9.14764 6.32997 9.06155 6.28489 8.99569C6.23983 8.92987 6.16211 8.89209 6.07167 8.89209Z" fill="#141414"/>
<path d="M2.29239 3.42998C2.33574 3.52842 2.41871 3.58718 2.51433 3.58718C2.57983 3.58718 2.64477 3.55828 2.6972 3.50583L3.50568 2.69737C3.56963 2.63342 3.59788 2.55174 3.58318 2.47331C3.56846 2.3949 3.51258 2.32901 3.42983 2.29256L1.83974 1.59207C1.7996 1.5744 1.7618 1.56543 1.7274 1.56543C1.66987 1.56543 1.62029 1.59086 1.59137 1.6352C1.56698 1.67261 1.54727 1.7385 1.59193 1.83991L2.29239 3.42998Z" fill="#141414"/>
<path d="M8.70758 7.57029C8.66423 7.47184 8.58128 7.41309 8.48568 7.41309C8.42016 7.41309 8.35521 7.44201 8.30276 7.49445L7.49428 8.30292C7.43033 8.36689 7.40207 8.44858 7.41678 8.52698C7.43148 8.60538 7.48739 8.67127 7.57013 8.70771L9.1602 9.40822C9.20033 9.42589 9.23813 9.43485 9.27254 9.43485C9.33007 9.43485 9.37964 9.40939 9.40856 9.36508C9.43297 9.32764 9.45269 9.26177 9.40802 9.16038L8.70758 7.57029Z" fill="#141414"/>
<path d="M8.30277 3.50581C8.35521 3.55826 8.42017 3.58716 8.48567 3.58716C8.58127 3.58716 8.66422 3.52841 8.70761 3.42996L9.40808 1.83991C9.45277 1.73848 9.43305 1.67261 9.40864 1.6352C9.37972 1.59086 9.33015 1.56543 9.27262 1.56543C9.23821 1.56543 9.20041 1.5744 9.16026 1.59208L7.57019 2.29253C7.48744 2.32899 7.43152 2.39487 7.41684 2.47329C7.40213 2.55171 7.43039 2.6334 7.49434 2.69735L8.30277 3.50581Z" fill="#141414"/>
<path d="M2.69721 7.49445C2.64477 7.44201 2.57981 7.41309 2.5143 7.41309C2.41869 7.41309 2.33574 7.47184 2.29239 7.57029L1.59191 9.16034C1.54723 9.26177 1.56695 9.32764 1.59136 9.36506C1.62028 9.40939 1.66987 9.43484 1.72738 9.43484C1.76178 9.43484 1.79958 9.42587 1.83974 9.40816L3.42981 8.70769C3.51256 8.67124 3.56848 8.60534 3.58316 8.52694C3.59787 8.44854 3.56963 8.36685 3.50566 8.30288L2.69721 7.49445Z" fill="#141414"/>
<path d="M10.8516 5.32474L9.23197 4.69573C9.19707 4.68216 9.16195 4.67529 9.12762 4.67529C8.99114 4.67529 8.89209 4.78172 8.89209 4.92833L8.89211 6.0717C8.89211 6.21831 8.99116 6.32473 9.12764 6.32473C9.162 6.32473 9.19712 6.31787 9.23199 6.30432L10.8517 5.67525C10.9807 5.6251 11 5.54393 11 5.49999C11 5.45608 10.9807 5.37487 10.8516 5.32474Z" fill="#141414"/>
<path d="M1.87239 6.32473C2.00888 6.32473 2.10795 6.21831 2.10795 6.0717V4.92833C2.10795 4.78172 2.0089 4.67529 1.87239 4.67529C1.83802 4.67529 1.80294 4.68216 1.76805 4.69571L0.148374 5.32476C0.0192859 5.37489 0 5.45606 0 5.5C0 5.54393 0.0192679 5.6251 0.148374 5.67528L1.76801 6.3043C1.80292 6.31785 1.83802 6.32473 1.87239 6.32473Z" fill="#141414"/>
</svg>
