<svg width="521" height="521" viewBox="0 0 521 521" fill="none" xmlns="http://www.w3.org/2000/svg">
<path d="M505.736 77.3359H455.171L397.873 277.918V327.179C362.417 339.823 336.818 373.392 336.818 413.137C336.818 423.893 339.02 434.069 342.443 443.664H147.008C150.431 434.069 152.637 423.893 152.637 413.137C152.637 373.809 127.591 340.483 92.7149 327.533C95.5371 307.034 111.222 290.447 132.321 288.106L370.744 261.72L428.981 57.8827C430.861 51.3241 436.851 46.8086 443.664 46.8086H505.736C514.171 46.8086 521 53.6375 521 62.0723C521 70.507 514.171 77.3359 505.736 77.3359ZM291.027 352.082H198.428C189.993 352.082 183.164 358.911 183.164 367.346C183.164 375.78 189.993 382.609 198.428 382.609H291.027C299.462 382.609 306.291 375.78 306.291 367.346C306.291 358.911 299.462 352.082 291.027 352.082Z" fill="black" fill-opacity="0.1"/>
<path d="M428.4 352.082C462.12 352.082 489.455 379.418 489.455 413.137C489.455 446.856 462.12 474.191 428.4 474.191C394.681 474.191 367.346 446.856 367.346 413.137C367.346 379.418 394.681 352.082 428.4 352.082ZM428.4 428.4C436.831 428.4 443.664 421.568 443.664 413.137C443.664 404.706 436.831 397.873 428.4 397.873C419.97 397.873 413.137 404.706 413.137 413.137C413.137 421.568 419.97 428.4 428.4 428.4Z" fill="black" fill-opacity="0.1"/>
<path d="M285.991 182.572C298.866 181.184 311.896 185.314 321.583 193.992C331.257 202.649 336.818 215.098 336.818 228.092V234.774L152.637 255.138V234.874C152.637 211.517 170.15 191.96 193.924 189.309L285.991 182.572Z" fill="black" fill-opacity="0.1"/>
<path d="M61.0547 352.082C94.7739 352.082 122.109 379.418 122.109 413.137C122.109 446.856 94.7739 474.191 61.0547 474.191C27.3355 474.191 0 446.856 0 413.137C0 379.418 27.3355 352.082 61.0547 352.082ZM61.0547 428.4C69.4855 428.4 76.3184 421.568 76.3184 413.137C76.3184 404.706 69.4855 397.873 61.0547 397.873C52.6239 397.873 45.791 404.706 45.791 413.137C45.791 421.568 52.6239 428.4 61.0547 428.4Z" fill="black" fill-opacity="0.1"/>
<path d="M30.28 50V78H22.44V56.28H11.8V78H4V50H30.28ZM49.0656 50C51.599 50 53.799 50.4267 55.6656 51.28C57.5323 52.1067 58.9723 53.3067 59.9856 54.88C60.999 56.4267 61.5056 58.2533 61.5056 60.36C61.5056 62.4667 60.999 64.2933 59.9856 65.84C58.9723 67.3867 57.5323 68.5867 55.6656 69.44C53.799 70.2667 51.599 70.68 49.0656 70.68H44.1856V78H36.2656V50H49.0656ZM48.5856 64.44C50.2123 64.44 51.439 64.0933 52.2656 63.4C53.0923 62.68 53.5056 61.6667 53.5056 60.36C53.5056 59.0533 53.0923 58.04 52.2656 57.32C51.439 56.6 50.2123 56.24 48.5856 56.24H44.1856V64.44H48.5856ZM65.0938 50H72.8938V66.44L84.4538 50H91.8938V78H84.0938V61.6L72.5738 78H65.0938V50ZM124.506 50L112.906 71.64C111.68 73.96 110.173 75.72 108.386 76.92C106.626 78.12 104.693 78.72 102.586 78.72C101.04 78.72 99.3863 78.3733 97.6263 77.68L99.5063 71.84C100.6 72.16 101.533 72.32 102.306 72.32C103.08 72.32 103.76 72.1467 104.346 71.8C104.96 71.4533 105.52 70.9067 106.026 70.16L95.1463 50H103.506L110.026 63.52L116.786 50H124.506ZM140.296 78.56C137.363 78.56 134.723 77.9467 132.376 76.72C130.056 75.4667 128.23 73.7333 126.896 71.52C125.563 69.3067 124.896 66.8 124.896 64C124.896 61.2 125.563 58.6933 126.896 56.48C128.23 54.2667 130.056 52.5467 132.376 51.32C134.723 50.0667 137.363 49.44 140.296 49.44C142.856 49.44 145.163 49.8933 147.216 50.8C149.27 51.7067 150.976 53.0133 152.336 54.72L147.296 59.28C145.483 57.0933 143.283 56 140.696 56C139.176 56 137.816 56.3333 136.616 57C135.443 57.6667 134.523 58.6133 133.856 59.84C133.216 61.04 132.896 62.4267 132.896 64C132.896 65.5733 133.216 66.9733 133.856 68.2C134.523 69.4 135.443 70.3333 136.616 71C137.816 71.6667 139.176 72 140.696 72C143.283 72 145.483 70.9067 147.296 68.72L152.336 73.28C150.976 74.9867 149.27 76.2933 147.216 77.2C145.163 78.1067 142.856 78.56 140.296 78.56ZM174.765 72.56H162.925L160.725 78H152.645L165.005 50H172.805L185.205 78H176.965L174.765 72.56ZM172.445 66.72L168.845 57.76L165.245 66.72H172.445ZM218.807 71.72V83.64H211.567V78H193.647V83.64H186.367V71.72H187.367C189.02 71.6933 190.18 70.56 190.847 68.32C191.54 66.08 191.967 62.8533 192.127 58.64L192.447 50H215.007V71.72H218.807ZM199.047 59.32C198.94 62.3067 198.7 64.84 198.327 66.92C197.953 69 197.38 70.6 196.607 71.72H207.207V56.28H199.167L199.047 59.32ZM245.074 71.88V78H222.594V50H244.554V56.12H230.434V60.84H242.874V66.76H230.434V71.88H245.074ZM276.226 50V78H268.306V67.08H257.506V78H249.586V50H257.506V60.52H268.306V50H276.226ZM282.242 50H305.642V56.12H290.042V60.64H297.282C300.669 60.64 303.269 61.36 305.082 62.8C306.896 64.24 307.802 66.3067 307.802 69C307.802 71.8267 306.789 74.04 304.762 75.64C302.736 77.2133 299.896 78 296.242 78H282.242V50ZM295.722 72.32C297.056 72.32 298.069 72.0533 298.762 71.52C299.456 70.9867 299.802 70.2267 299.802 69.24C299.802 67.2667 298.442 66.28 295.722 66.28H290.042V72.32H295.722ZM338.531 50V78H330.611V67.08H319.811V78H311.891V50H319.811V60.52H330.611V50H338.531ZM358.827 58.92C362.267 58.92 364.92 59.6933 366.787 61.24C368.654 62.76 369.587 65.0267 369.587 68.04C369.587 71.2667 368.547 73.7333 366.467 75.44C364.387 77.1467 361.494 78 357.787 78H344.547V50H352.347V58.92H358.827ZM357.267 72.32C358.6 72.32 359.654 71.96 360.427 71.24C361.227 70.52 361.627 69.5067 361.627 68.2C361.627 65.7733 360.174 64.56 357.267 64.56H352.347V72.32H357.267ZM372.667 50H380.467V78H372.667V50ZM408.98 71.88V78H386.5V50H408.46V56.12H394.34V60.84H406.78V66.76H394.34V71.88H408.98ZM26.56 105.28H18V127H10.2V105.28H1.6V99H26.56V105.28ZM52.6909 120.88V127H30.2109V99H52.1709V105.12H38.0509V109.84H50.4909V115.76H38.0509V120.88H52.6909ZM63.9288 98.96L68.9288 106.56L73.8888 98.96H83.0888L73.8888 112.36L83.8888 127H74.5688L68.9288 118.72L63.3288 127H54.2088L64.1688 112.72L54.8488 98.96H63.9288ZM112.945 99V127H105.025V116.08H94.2247V127H86.3047V99H94.2247V109.52H105.025V99H112.945ZM132.721 127.56C129.761 127.56 127.094 126.933 124.721 125.68C122.374 124.427 120.521 122.693 119.161 120.48C117.828 118.267 117.161 115.773 117.161 113C117.161 110.227 117.828 107.733 119.161 105.52C120.521 103.307 122.374 101.573 124.721 100.32C127.094 99.0667 129.761 98.44 132.721 98.44C135.681 98.44 138.334 99.0667 140.681 100.32C143.054 101.573 144.908 103.307 146.241 105.52C147.601 107.733 148.281 110.227 148.281 113C148.281 115.773 147.601 118.267 146.241 120.48C144.908 122.693 143.054 124.427 140.681 125.68C138.334 126.933 135.681 127.56 132.721 127.56ZM132.721 121C134.134 121 135.414 120.667 136.561 120C137.708 119.333 138.614 118.4 139.281 117.2C139.948 115.973 140.281 114.573 140.281 113C140.281 111.427 139.948 110.04 139.281 108.84C138.614 107.613 137.708 106.667 136.561 106C135.414 105.333 134.134 105 132.721 105C131.308 105 130.028 105.333 128.881 106C127.734 106.667 126.828 107.613 126.161 108.84C125.494 110.04 125.161 111.427 125.161 113C125.161 114.573 125.494 115.973 126.161 117.2C126.828 118.4 127.734 119.333 128.881 120C130.028 120.667 131.308 121 132.721 121ZM177.854 99V127H170.054V105.28H162.014L161.854 109.84C161.721 113.84 161.388 117.093 160.854 119.6C160.348 122.107 159.468 124.053 158.214 125.44C156.961 126.8 155.188 127.48 152.894 127.48C151.828 127.48 150.628 127.32 149.294 127L149.734 120.52C150.081 120.6 150.441 120.64 150.814 120.64C151.854 120.64 152.654 120.227 153.214 119.4C153.774 118.573 154.174 117.427 154.414 115.96C154.654 114.467 154.814 112.533 154.894 110.16L155.294 99H177.854ZM197.604 127.56C194.644 127.56 191.977 126.933 189.604 125.68C187.257 124.427 185.404 122.693 184.044 120.48C182.71 118.267 182.044 115.773 182.044 113C182.044 110.227 182.71 107.733 184.044 105.52C185.404 103.307 187.257 101.573 189.604 100.32C191.977 99.0667 194.644 98.44 197.604 98.44C200.564 98.44 203.217 99.0667 205.564 100.32C207.937 101.573 209.79 103.307 211.124 105.52C212.484 107.733 213.164 110.227 213.164 113C213.164 115.773 212.484 118.267 211.124 120.48C209.79 122.693 207.937 124.427 205.564 125.68C203.217 126.933 200.564 127.56 197.604 127.56ZM197.604 121C199.017 121 200.297 120.667 201.444 120C202.59 119.333 203.497 118.4 204.164 117.2C204.83 115.973 205.164 114.573 205.164 113C205.164 111.427 204.83 110.04 204.164 108.84C203.497 107.613 202.59 106.667 201.444 106C200.297 105.333 199.017 105 197.604 105C196.19 105 194.91 105.333 193.764 106C192.617 106.667 191.71 107.613 191.044 108.84C190.377 110.04 190.044 111.427 190.044 113C190.044 114.573 190.377 115.973 191.044 117.2C191.71 118.4 192.617 119.333 193.764 120C194.91 120.667 196.19 121 197.604 121ZM237.878 105.28H225.198V127H217.398V99H237.918L237.878 105.28ZM241.461 99H249.261V115.44L260.821 99H268.261V127H260.461V110.6L248.941 127H241.461V99ZM274.273 99H282.073V115.44L293.633 99H301.073V127H293.273V110.6L281.753 127H274.273V99Z" fill="black" fill-opacity="0.1"/>
</svg>
