<svg width="100" height="100" viewBox="0 0 100 100" fill="none" xmlns="http://www.w3.org/2000/svg">
<path d="M70.4921 65.0689C70.4921 66.8876 69.017 68.3669 67.1958 68.3669C65.3763 68.3669 63.8966 66.8876 63.8966 65.0689C63.8966 63.248 65.376 61.7718 67.1958 61.7718C69.0172 61.7718 70.4921 63.248 70.4921 65.0689ZM89.3316 24.4306C90.6442 24.4306 91.7071 23.3669 91.7071 22.056C91.7071 20.7456 90.6442 19.6813 89.3316 19.6813H76.608L78.1419 24.4306H89.3316ZM100 62.4425V68.5246C100 71.6737 97.9276 74.3188 95.0899 75.2539V96.0466C95.0899 97.7949 93.6713 99.2127 91.9235 99.2127H3.16916C1.4217 99.2127 0.00310785 97.7949 0.00310785 96.0466V32.9083C0.00310785 32.7156 0.0268406 32.5286 0.0604619 32.3449C0.0242978 32.0062 0 31.6629 0 31.3159C0 26.0473 4.20012 19.6838 9.41482 19.6838H13.2906C13.1276 19.846 12.966 20.0062 12.8044 20.1692C11.6499 21.3233 11.6013 23.1994 12.6317 24.4332H9.41482C7.55632 24.4332 5.59131 27.1828 4.96127 29.7425H91.9235C93.6716 29.7425 95.0899 31.1614 95.0899 32.9086V55.7132C97.9276 56.6481 100 59.2934 100 62.4425ZM98.4167 62.4425C98.4167 59.3906 95.9363 56.9108 92.8844 56.9108H65.0516C60.3811 56.9108 56.5932 60.6984 56.5932 65.3707C56.5932 70.0409 60.3808 73.8303 65.0516 73.8303H94.3694C96.6969 73.1776 98.4178 71.0598 98.4178 68.5246V62.4425H98.4167ZM77.7074 27.515L73.425 16.4635L44.902 27.515H77.7074ZM15.5576 27.515H23.6567L70.6531 9.30612L67.969 2.36996C67.4726 1.09433 66.0348 0.461453 64.7595 0.95532L15.3435 20.0997C14.0659 20.595 13.4327 22.0314 13.9266 23.307L15.5576 27.515Z" fill="white"/>
</svg>
